<mxfile host="Electron" modified="2024-04-03T12:14:27.908Z" agent="Mozilla/5.0 (X11; Linux x86_64) AppleWebKit/537.36 (KHTML, like Gecko) draw.io/24.0.4 Chrome/120.0.6099.109 Electron/28.1.0 Safari/537.36" etag="d0qqoD9rBb1jTt5cX_x9" version="24.0.4" type="device" pages="7">
  <diagram name="consume-product-base" id="6dv0487Sd1imH6Vtmh2Y">
    <mxGraphModel dx="954" dy="658" grid="1" gridSize="10" guides="1" tooltips="1" connect="1" arrows="1" fold="1" page="1" pageScale="1" pageWidth="850" pageHeight="1100" math="0" shadow="0">
      <root>
        <mxCell id="0" />
        <mxCell id="1" parent="0" />
        <mxCell id="aiVydBmV3U3bzBaRBe3W-1" value="" style="rounded=0;whiteSpace=wrap;html=1;strokeWidth=2;fillColor=#E6FFCC;align=left;" parent="1" vertex="1">
          <mxGeometry x="20" y="200" width="310" height="300" as="geometry" />
        </mxCell>
        <mxCell id="aiVydBmV3U3bzBaRBe3W-2" value="" style="rounded=0;whiteSpace=wrap;html=1;fillColor=#CCE5FF;strokeWidth=2;align=left;" parent="1" vertex="1">
          <mxGeometry x="460" y="200" width="320" height="300" as="geometry" />
        </mxCell>
        <mxCell id="aiVydBmV3U3bzBaRBe3W-4" value="&lt;b&gt;&lt;font style=&quot;font-size: 15px;&quot;&gt;Consumer&lt;/font&gt;&lt;/b&gt;" style="text;html=1;strokeColor=none;fillColor=none;align=left;verticalAlign=middle;whiteSpace=wrap;rounded=0;" parent="1" vertex="1">
          <mxGeometry x="135" y="200" width="80" height="30" as="geometry" />
        </mxCell>
        <mxCell id="aiVydBmV3U3bzBaRBe3W-5" value="&lt;b&gt;&lt;font style=&quot;font-size: 15px;&quot;&gt;Producer&lt;/font&gt;&lt;/b&gt;" style="text;html=1;strokeColor=none;fillColor=none;align=left;verticalAlign=middle;whiteSpace=wrap;rounded=0;" parent="1" vertex="1">
          <mxGeometry x="590" y="200" width="80" height="30" as="geometry" />
        </mxCell>
        <mxCell id="aiVydBmV3U3bzBaRBe3W-8" style="edgeStyle=orthogonalEdgeStyle;shape=connector;rounded=0;orthogonalLoop=1;jettySize=auto;html=1;exitX=0;exitY=0.5;exitDx=0;exitDy=0;labelBackgroundColor=default;strokeColor=default;strokeWidth=2;fontFamily=Helvetica;fontSize=11;fontColor=default;startArrow=none;startFill=0;endArrow=none;endFill=0;align=left;" parent="1" source="aiVydBmV3U3bzBaRBe3W-6" target="aiVydBmV3U3bzBaRBe3W-1" edge="1">
          <mxGeometry relative="1" as="geometry" />
        </mxCell>
        <mxCell id="aiVydBmV3U3bzBaRBe3W-9" style="edgeStyle=orthogonalEdgeStyle;shape=connector;rounded=0;orthogonalLoop=1;jettySize=auto;html=1;exitX=1;exitY=0.5;exitDx=0;exitDy=0;entryX=0;entryY=0.5;entryDx=0;entryDy=0;labelBackgroundColor=default;strokeColor=default;strokeWidth=2;fontFamily=Helvetica;fontSize=11;fontColor=default;startArrow=none;startFill=0;endArrow=none;endFill=0;align=left;" parent="1" source="aiVydBmV3U3bzBaRBe3W-6" target="aiVydBmV3U3bzBaRBe3W-2" edge="1">
          <mxGeometry relative="1" as="geometry" />
        </mxCell>
        <mxCell id="aiVydBmV3U3bzBaRBe3W-6" value="&lt;b style=&quot;border-color: var(--border-color);&quot;&gt;&lt;font style=&quot;border-color: var(--border-color); font-size: 15px;&quot;&gt;products&lt;/font&gt;&lt;/b&gt;" style="rounded=0;whiteSpace=wrap;html=1;strokeWidth=2;fillColor=#FFB366;align=center;" parent="1" vertex="1">
          <mxGeometry x="350" y="330" width="80" height="40" as="geometry" />
        </mxCell>
        <mxCell id="aiVydBmV3U3bzBaRBe3W-13" value="&lt;div&gt;class Consumer implements Runnable {&lt;/div&gt;&lt;div&gt;&amp;nbsp; &amp;nbsp; public Queue&amp;lt;String&amp;gt; products;&lt;/div&gt;&lt;div&gt;&lt;br&gt;&lt;/div&gt;&lt;div&gt;&amp;nbsp; &amp;nbsp; @Override&lt;/div&gt;&lt;div&gt;&amp;nbsp; &amp;nbsp; public void run() {&lt;/div&gt;&lt;div&gt;&amp;nbsp; &amp;nbsp; &amp;nbsp; &amp;nbsp; while (true) {&lt;/div&gt;&lt;div&gt;&amp;nbsp; &amp;nbsp; &amp;nbsp; &amp;nbsp; &amp;nbsp; &amp;nbsp; &lt;b&gt;synchronized (products)&lt;/b&gt; {&lt;/div&gt;&lt;div&gt;&amp;nbsp; &amp;nbsp; &amp;nbsp; &amp;nbsp; &amp;nbsp; &amp;nbsp; &amp;nbsp; &amp;nbsp; &lt;b&gt;while (products.size() == 0)&lt;/b&gt; {&lt;/div&gt;&lt;div&gt;&amp;nbsp; &amp;nbsp; &amp;nbsp; &amp;nbsp; &amp;nbsp; &amp;nbsp; &amp;nbsp; &amp;nbsp; &amp;nbsp; &amp;nbsp; try {&lt;/div&gt;&lt;div&gt;&amp;nbsp; &amp;nbsp; &amp;nbsp; &amp;nbsp; &amp;nbsp; &amp;nbsp; &amp;nbsp; &amp;nbsp; &amp;nbsp; &amp;nbsp; &amp;nbsp; &amp;nbsp; &lt;b&gt;products.wait();&lt;/b&gt;&lt;/div&gt;&lt;div&gt;&amp;nbsp; &amp;nbsp; &amp;nbsp; &amp;nbsp; &amp;nbsp; &amp;nbsp; &amp;nbsp; &amp;nbsp; &amp;nbsp; &amp;nbsp; } catch (Exception ex) {&lt;/div&gt;&lt;div&gt;&amp;nbsp; &amp;nbsp; &amp;nbsp; &amp;nbsp; &amp;nbsp; &amp;nbsp; &amp;nbsp; &amp;nbsp; &amp;nbsp; &amp;nbsp; }&lt;/div&gt;&lt;div&gt;&amp;nbsp; &amp;nbsp; &amp;nbsp; &amp;nbsp; &amp;nbsp; &amp;nbsp; &amp;nbsp; &amp;nbsp; }&lt;/div&gt;&lt;div&gt;&lt;div style=&quot;border-color: var(--border-color);&quot;&gt;&amp;nbsp; &amp;nbsp; &amp;nbsp; &amp;nbsp; &amp;nbsp; &amp;nbsp; &amp;nbsp; &amp;nbsp;System.out.println(&quot;Consume &quot; + products.remove());&lt;/div&gt;&lt;div style=&quot;border-color: var(--border-color);&quot;&gt;&lt;span style=&quot;border-color: var(--border-color);&quot;&gt;&lt;/span&gt;&lt;span style=&quot;white-space: pre;&quot;&gt;&#x9;&lt;/span&gt;&amp;nbsp; &amp;nbsp;&amp;nbsp; &amp;nbsp;&amp;nbsp;&lt;b style=&quot;border-color: var(--border-color);&quot;&gt;products.notify();&lt;/b&gt;&lt;/div&gt;&lt;/div&gt;&lt;div&gt;&amp;nbsp; &amp;nbsp; &amp;nbsp; &amp;nbsp; &amp;nbsp; &amp;nbsp; }&lt;/div&gt;&lt;div&gt;&amp;nbsp; &amp;nbsp; &amp;nbsp; &amp;nbsp; }&lt;/div&gt;&lt;div&gt;&amp;nbsp; &amp;nbsp; }&lt;/div&gt;&lt;div&gt;}&lt;/div&gt;" style="text;html=1;align=left;verticalAlign=middle;resizable=0;points=[];autosize=1;strokeColor=none;fillColor=none;fontSize=11;fontFamily=Helvetica;fontColor=default;" parent="1" vertex="1">
          <mxGeometry x="30" y="225" width="330" height="260" as="geometry" />
        </mxCell>
        <mxCell id="aiVydBmV3U3bzBaRBe3W-16" value="&lt;div&gt;class Producer implements Runnable {&lt;/div&gt;&lt;div&gt;&amp;nbsp; &amp;nbsp; public Queue&amp;lt;String&amp;gt; products;&lt;/div&gt;&lt;div&gt;&lt;br&gt;&lt;/div&gt;&lt;div&gt;&amp;nbsp; &amp;nbsp; @Override&lt;/div&gt;&lt;div&gt;&amp;nbsp; &amp;nbsp; public void run() {&lt;/div&gt;&lt;div&gt;&amp;nbsp; &amp;nbsp; &amp;nbsp; &amp;nbsp; while (true) {&lt;/div&gt;&lt;div&gt;&amp;nbsp; &amp;nbsp; &amp;nbsp; &amp;nbsp; &amp;nbsp; &amp;nbsp; &lt;b&gt;synchronized (products)&lt;/b&gt; {&lt;/div&gt;&lt;div&gt;&amp;nbsp; &amp;nbsp; &amp;nbsp; &amp;nbsp; &amp;nbsp; &amp;nbsp; &amp;nbsp; &amp;nbsp; &lt;b&gt;while(products.size() == 10)&lt;/b&gt; {&lt;/div&gt;&lt;div&gt;&amp;nbsp; &amp;nbsp; &amp;nbsp; &amp;nbsp; &amp;nbsp; &amp;nbsp; &amp;nbsp; &amp;nbsp; &amp;nbsp; &amp;nbsp; try {&lt;/div&gt;&lt;div&gt;&amp;nbsp; &amp;nbsp; &amp;nbsp; &amp;nbsp; &amp;nbsp; &amp;nbsp; &amp;nbsp; &amp;nbsp; &amp;nbsp; &amp;nbsp; &amp;nbsp; &amp;nbsp; &lt;b&gt;products.wait();&lt;/b&gt;&lt;/div&gt;&lt;div&gt;&amp;nbsp; &amp;nbsp; &amp;nbsp; &amp;nbsp; &amp;nbsp; &amp;nbsp; &amp;nbsp; &amp;nbsp; &amp;nbsp; &amp;nbsp; } catch (InterruptedException e) {&lt;/div&gt;&lt;div&gt;&lt;span style=&quot;white-space: pre;&quot;&gt;&#x9;&lt;/span&gt;&lt;span style=&quot;white-space: pre;&quot;&gt;&#x9;&lt;/span&gt;&amp;nbsp; &amp;nbsp; }&lt;/div&gt;&lt;div&gt;&amp;nbsp; &amp;nbsp; &amp;nbsp; &amp;nbsp; &amp;nbsp; &amp;nbsp; &amp;nbsp; &amp;nbsp; }&lt;/div&gt;&lt;div&gt;&amp;nbsp; &amp;nbsp; &amp;nbsp; &amp;nbsp; &amp;nbsp; &amp;nbsp; &amp;nbsp; &amp;nbsp; products.add(&quot;Product &quot; + (products.size() + 1));&lt;/div&gt;&lt;div&gt;&amp;nbsp; &amp;nbsp; &amp;nbsp; &amp;nbsp; &amp;nbsp; &amp;nbsp; &amp;nbsp; &lt;b&gt;&amp;nbsp; products.notify();&lt;/b&gt;&lt;/div&gt;&lt;div&gt;&amp;nbsp; &amp;nbsp; &amp;nbsp; &amp;nbsp; &amp;nbsp; &amp;nbsp; }&lt;/div&gt;&lt;div&gt;&amp;nbsp; &amp;nbsp; &amp;nbsp; &amp;nbsp; }&lt;/div&gt;&lt;div&gt;&amp;nbsp; &amp;nbsp; }&lt;/div&gt;&lt;div style=&quot;&quot;&gt;}&lt;/div&gt;" style="text;html=1;align=left;verticalAlign=middle;resizable=0;points=[];autosize=1;strokeColor=none;fillColor=none;fontSize=11;fontFamily=Helvetica;fontColor=default;" parent="1" vertex="1">
          <mxGeometry x="465" y="225" width="310" height="260" as="geometry" />
        </mxCell>
      </root>
    </mxGraphModel>
  </diagram>
  <diagram id="gk3hnk_5HWCck9-iHWtw" name="dead-Lock-base">
    <mxGraphModel dx="954" dy="663" grid="1" gridSize="10" guides="1" tooltips="1" connect="1" arrows="1" fold="1" page="1" pageScale="1" pageWidth="850" pageHeight="1100" math="0" shadow="0">
      <root>
        <mxCell id="0" />
        <mxCell id="1" parent="0" />
        <mxCell id="DWwSaMobgWPGCUqwgVWq-6" style="rounded=0;orthogonalLoop=1;jettySize=auto;html=1;exitX=0.5;exitY=1;exitDx=0;exitDy=0;entryX=0;entryY=0;entryDx=0;entryDy=0;strokeWidth=2;endArrow=blockThin;endFill=1;" edge="1" parent="1" source="DWwSaMobgWPGCUqwgVWq-1" target="DWwSaMobgWPGCUqwgVWq-5">
          <mxGeometry relative="1" as="geometry" />
        </mxCell>
        <mxCell id="DWwSaMobgWPGCUqwgVWq-9" style="edgeStyle=orthogonalEdgeStyle;shape=connector;rounded=0;orthogonalLoop=1;jettySize=auto;html=1;exitX=0;exitY=0.5;exitDx=0;exitDy=0;entryX=0;entryY=0.5;entryDx=0;entryDy=0;labelBackgroundColor=default;strokeColor=default;strokeWidth=2;fontFamily=Helvetica;fontSize=11;fontColor=default;endArrow=blockThin;endFill=1;curved=1;dashed=1;dashPattern=8 8;" edge="1" parent="1" source="DWwSaMobgWPGCUqwgVWq-1" target="DWwSaMobgWPGCUqwgVWq-4">
          <mxGeometry relative="1" as="geometry" />
        </mxCell>
        <mxCell id="DWwSaMobgWPGCUqwgVWq-1" value="线程A" style="rounded=1;whiteSpace=wrap;html=1;strokeWidth=2;fontSize=17;fontStyle=1;fillColor=#E6FFCC;" vertex="1" parent="1">
          <mxGeometry x="280" y="240" width="80" height="40" as="geometry" />
        </mxCell>
        <mxCell id="DWwSaMobgWPGCUqwgVWq-7" style="edgeStyle=none;shape=connector;rounded=0;orthogonalLoop=1;jettySize=auto;html=1;exitX=0.5;exitY=1;exitDx=0;exitDy=0;entryX=1;entryY=0;entryDx=0;entryDy=0;labelBackgroundColor=default;strokeColor=default;strokeWidth=2;fontFamily=Helvetica;fontSize=11;fontColor=default;endArrow=blockThin;endFill=1;" edge="1" parent="1" source="DWwSaMobgWPGCUqwgVWq-2" target="DWwSaMobgWPGCUqwgVWq-4">
          <mxGeometry relative="1" as="geometry" />
        </mxCell>
        <mxCell id="DWwSaMobgWPGCUqwgVWq-10" style="edgeStyle=orthogonalEdgeStyle;shape=connector;curved=1;rounded=0;orthogonalLoop=1;jettySize=auto;html=1;exitX=1;exitY=0.5;exitDx=0;exitDy=0;entryX=1;entryY=0.5;entryDx=0;entryDy=0;dashed=1;dashPattern=8 8;labelBackgroundColor=default;strokeColor=default;strokeWidth=2;fontFamily=Helvetica;fontSize=11;fontColor=default;endArrow=blockThin;endFill=1;" edge="1" parent="1" source="DWwSaMobgWPGCUqwgVWq-2" target="DWwSaMobgWPGCUqwgVWq-5">
          <mxGeometry relative="1" as="geometry" />
        </mxCell>
        <mxCell id="DWwSaMobgWPGCUqwgVWq-2" value="线程B" style="rounded=1;whiteSpace=wrap;html=1;strokeWidth=2;fontSize=17;fontStyle=1;fillColor=#E6FFCC;" vertex="1" parent="1">
          <mxGeometry x="440" y="240" width="80" height="40" as="geometry" />
        </mxCell>
        <mxCell id="DWwSaMobgWPGCUqwgVWq-4" value="资源1" style="ellipse;whiteSpace=wrap;html=1;aspect=fixed;strokeWidth=2;fillColor=#FFCC99;fontSize=17;fontStyle=1" vertex="1" parent="1">
          <mxGeometry x="280" y="340" width="80" height="80" as="geometry" />
        </mxCell>
        <mxCell id="DWwSaMobgWPGCUqwgVWq-5" value="资源2" style="ellipse;whiteSpace=wrap;html=1;aspect=fixed;strokeWidth=2;fillColor=#FFCC99;fontSize=17;fontStyle=1" vertex="1" parent="1">
          <mxGeometry x="440" y="340" width="80" height="80" as="geometry" />
        </mxCell>
        <mxCell id="DWwSaMobgWPGCUqwgVWq-8" value="持有" style="text;html=1;strokeColor=none;fillColor=none;align=center;verticalAlign=middle;whiteSpace=wrap;rounded=0;fontSize=15;fontFamily=Helvetica;fontColor=default;" vertex="1" parent="1">
          <mxGeometry x="370" y="330" width="60" height="30" as="geometry" />
        </mxCell>
        <mxCell id="DWwSaMobgWPGCUqwgVWq-11" value="等待" style="text;html=1;strokeColor=none;fillColor=none;align=center;verticalAlign=middle;whiteSpace=wrap;rounded=0;fontSize=15;fontFamily=Helvetica;fontColor=default;" vertex="1" parent="1">
          <mxGeometry x="250" y="300" width="60" height="30" as="geometry" />
        </mxCell>
        <mxCell id="DWwSaMobgWPGCUqwgVWq-13" value="等待" style="text;html=1;strokeColor=none;fillColor=none;align=center;verticalAlign=middle;whiteSpace=wrap;rounded=0;fontSize=15;fontFamily=Helvetica;fontColor=default;" vertex="1" parent="1">
          <mxGeometry x="490" y="300" width="60" height="30" as="geometry" />
        </mxCell>
      </root>
    </mxGraphModel>
  </diagram>
  <diagram id="ku0qqFuDgvNlMloV11UB" name="Thread-LifeTime">
    <mxGraphModel dx="954" dy="663" grid="1" gridSize="10" guides="1" tooltips="1" connect="1" arrows="1" fold="1" page="1" pageScale="1" pageWidth="850" pageHeight="1100" math="0" shadow="0">
      <root>
        <mxCell id="0" />
        <mxCell id="1" parent="0" />
        <mxCell id="cuBsOTPUBlA3fSlguSZW-7" style="edgeStyle=orthogonalEdgeStyle;rounded=0;orthogonalLoop=1;jettySize=auto;html=1;exitX=0.5;exitY=1;exitDx=0;exitDy=0;entryX=0.5;entryY=0;entryDx=0;entryDy=0;fontFamily=Helvetica;fontSize=12;fontColor=default;endArrow=blockThin;endFill=1;strokeWidth=2;" edge="1" parent="1" source="cuBsOTPUBlA3fSlguSZW-4" target="cuBsOTPUBlA3fSlguSZW-5">
          <mxGeometry relative="1" as="geometry" />
        </mxCell>
        <mxCell id="cuBsOTPUBlA3fSlguSZW-4" value="" style="ellipse;fillColor=strokeColor;html=1;" vertex="1" parent="1">
          <mxGeometry x="385" y="10" width="30" height="30" as="geometry" />
        </mxCell>
        <mxCell id="cuBsOTPUBlA3fSlguSZW-5" value="初始&lt;br&gt;（New）" style="html=1;align=center;verticalAlign=top;rounded=1;absoluteArcSize=1;arcSize=10;dashed=0;whiteSpace=wrap;strokeWidth=2;fontStyle=1" vertex="1" parent="1">
          <mxGeometry x="337.5" y="80" width="125" height="45" as="geometry" />
        </mxCell>
        <mxCell id="cuBsOTPUBlA3fSlguSZW-25" style="edgeStyle=orthogonalEdgeStyle;shape=connector;rounded=0;orthogonalLoop=1;jettySize=auto;html=1;exitX=0.5;exitY=1;exitDx=0;exitDy=0;entryX=0.5;entryY=0;entryDx=0;entryDy=0;labelBackgroundColor=default;strokeColor=default;strokeWidth=2;fontFamily=Helvetica;fontSize=12;fontColor=default;endArrow=blockThin;endFill=1;" edge="1" parent="1" source="cuBsOTPUBlA3fSlguSZW-8" target="cuBsOTPUBlA3fSlguSZW-23">
          <mxGeometry relative="1" as="geometry" />
        </mxCell>
        <mxCell id="cuBsOTPUBlA3fSlguSZW-40" style="edgeStyle=orthogonalEdgeStyle;shape=connector;rounded=0;orthogonalLoop=1;jettySize=auto;html=1;exitX=0;exitY=0.5;exitDx=0;exitDy=0;entryX=1;entryY=0.25;entryDx=0;entryDy=0;labelBackgroundColor=default;strokeColor=default;strokeWidth=2;fontFamily=Helvetica;fontSize=12;fontColor=default;endArrow=blockThin;endFill=1;" edge="1" parent="1" target="cuBsOTPUBlA3fSlguSZW-37">
          <mxGeometry relative="1" as="geometry">
            <mxPoint x="280" y="220" as="sourcePoint" />
            <Array as="points">
              <mxPoint x="280" y="201" />
            </Array>
          </mxGeometry>
        </mxCell>
        <mxCell id="cuBsOTPUBlA3fSlguSZW-53" style="edgeStyle=orthogonalEdgeStyle;shape=connector;rounded=0;orthogonalLoop=1;jettySize=auto;html=1;exitX=1;exitY=0.75;exitDx=0;exitDy=0;entryX=0;entryY=0.25;entryDx=0;entryDy=0;labelBackgroundColor=default;strokeColor=default;strokeWidth=2;fontFamily=Helvetica;fontSize=12;fontColor=default;endArrow=blockThin;endFill=1;" edge="1" parent="1" source="cuBsOTPUBlA3fSlguSZW-8" target="cuBsOTPUBlA3fSlguSZW-48">
          <mxGeometry relative="1" as="geometry">
            <Array as="points">
              <mxPoint x="520" y="331" />
            </Array>
          </mxGeometry>
        </mxCell>
        <mxCell id="cuBsOTPUBlA3fSlguSZW-58" style="edgeStyle=orthogonalEdgeStyle;shape=connector;rounded=0;orthogonalLoop=1;jettySize=auto;html=1;exitX=1;exitY=0.25;exitDx=0;exitDy=0;entryX=0;entryY=0.25;entryDx=0;entryDy=0;labelBackgroundColor=default;strokeColor=default;strokeWidth=2;fontFamily=Helvetica;fontSize=12;fontColor=default;endArrow=blockThin;endFill=1;" edge="1" parent="1" source="cuBsOTPUBlA3fSlguSZW-8" target="cuBsOTPUBlA3fSlguSZW-47">
          <mxGeometry relative="1" as="geometry">
            <Array as="points">
              <mxPoint x="520" y="201" />
            </Array>
          </mxGeometry>
        </mxCell>
        <mxCell id="cuBsOTPUBlA3fSlguSZW-62" style="edgeStyle=orthogonalEdgeStyle;shape=connector;rounded=0;orthogonalLoop=1;jettySize=auto;html=1;exitX=0;exitY=0.75;exitDx=0;exitDy=0;entryX=1;entryY=0.25;entryDx=0;entryDy=0;labelBackgroundColor=default;strokeColor=default;strokeWidth=2;fontFamily=Helvetica;fontSize=12;fontColor=default;endArrow=blockThin;endFill=1;" edge="1" parent="1" source="cuBsOTPUBlA3fSlguSZW-8" target="cuBsOTPUBlA3fSlguSZW-45">
          <mxGeometry relative="1" as="geometry">
            <Array as="points">
              <mxPoint x="280" y="331" />
            </Array>
          </mxGeometry>
        </mxCell>
        <mxCell id="cuBsOTPUBlA3fSlguSZW-8" value="" style="html=1;align=center;verticalAlign=top;rounded=1;absoluteArcSize=1;arcSize=10;dashed=0;whiteSpace=wrap;strokeWidth=2;fontStyle=1;fillColor=#99FF99;" vertex="1" parent="1">
          <mxGeometry x="280" y="160" width="240" height="220" as="geometry" />
        </mxCell>
        <mxCell id="cuBsOTPUBlA3fSlguSZW-29" style="edgeStyle=orthogonalEdgeStyle;shape=connector;rounded=0;orthogonalLoop=1;jettySize=auto;html=1;exitX=0.25;exitY=0;exitDx=0;exitDy=0;entryX=0.25;entryY=1;entryDx=0;entryDy=0;labelBackgroundColor=default;strokeColor=default;strokeWidth=2;fontFamily=Helvetica;fontSize=12;fontColor=default;endArrow=blockThin;endFill=1;" edge="1" parent="1" source="cuBsOTPUBlA3fSlguSZW-10" target="cuBsOTPUBlA3fSlguSZW-11">
          <mxGeometry relative="1" as="geometry" />
        </mxCell>
        <mxCell id="cuBsOTPUBlA3fSlguSZW-10" value="运行中&lt;br&gt;（Running）" style="html=1;align=center;verticalAlign=top;rounded=1;absoluteArcSize=1;arcSize=10;dashed=0;whiteSpace=wrap;strokeWidth=2;fontStyle=1;fillColor=#E6FFCC;" vertex="1" parent="1">
          <mxGeometry x="337.5" y="310" width="125" height="45" as="geometry" />
        </mxCell>
        <mxCell id="cuBsOTPUBlA3fSlguSZW-30" style="edgeStyle=orthogonalEdgeStyle;shape=connector;rounded=0;orthogonalLoop=1;jettySize=auto;html=1;exitX=0.75;exitY=1;exitDx=0;exitDy=0;entryX=0.75;entryY=0;entryDx=0;entryDy=0;labelBackgroundColor=default;strokeColor=default;strokeWidth=2;fontFamily=Helvetica;fontSize=12;fontColor=default;endArrow=blockThin;endFill=1;" edge="1" parent="1" source="cuBsOTPUBlA3fSlguSZW-11" target="cuBsOTPUBlA3fSlguSZW-10">
          <mxGeometry relative="1" as="geometry" />
        </mxCell>
        <mxCell id="cuBsOTPUBlA3fSlguSZW-11" value="就绪&lt;br&gt;（Ready）" style="html=1;align=center;verticalAlign=top;rounded=1;absoluteArcSize=1;arcSize=10;dashed=0;whiteSpace=wrap;strokeWidth=2;fontStyle=1;fillColor=#E6FFCC;" vertex="1" parent="1">
          <mxGeometry x="337.5" y="200" width="125" height="45" as="geometry" />
        </mxCell>
        <mxCell id="cuBsOTPUBlA3fSlguSZW-21" value="&lt;div style=&quot;text-align: left;&quot;&gt;&lt;span style=&quot;background-color: initial;&quot;&gt;系统调度&lt;/span&gt;&lt;br&gt;&lt;/div&gt;" style="text;html=1;strokeColor=none;fillColor=none;align=center;verticalAlign=middle;whiteSpace=wrap;rounded=0;fontSize=12;fontFamily=Helvetica;fontColor=default;" vertex="1" parent="1">
          <mxGeometry x="430" y="260" width="60" height="30" as="geometry" />
        </mxCell>
        <mxCell id="cuBsOTPUBlA3fSlguSZW-22" value="&lt;div style=&quot;text-align: left;&quot;&gt;&lt;div style=&quot;border-color: var(--border-color);&quot;&gt;yield()&lt;/div&gt;&lt;/div&gt;&lt;div style=&quot;text-align: left;&quot;&gt;&lt;span style=&quot;background-color: initial;&quot;&gt;系统调度&lt;/span&gt;&lt;br&gt;&lt;/div&gt;" style="text;html=1;strokeColor=none;fillColor=none;align=center;verticalAlign=middle;whiteSpace=wrap;rounded=0;fontSize=12;fontFamily=Helvetica;fontColor=default;" vertex="1" parent="1">
          <mxGeometry x="310" y="260" width="60" height="30" as="geometry" />
        </mxCell>
        <mxCell id="cuBsOTPUBlA3fSlguSZW-35" style="edgeStyle=orthogonalEdgeStyle;shape=connector;rounded=0;orthogonalLoop=1;jettySize=auto;html=1;exitX=0.5;exitY=1;exitDx=0;exitDy=0;entryX=0.5;entryY=0;entryDx=0;entryDy=0;labelBackgroundColor=default;strokeColor=default;strokeWidth=2;fontFamily=Helvetica;fontSize=12;fontColor=default;endArrow=blockThin;endFill=1;" edge="1" parent="1" source="cuBsOTPUBlA3fSlguSZW-23" target="cuBsOTPUBlA3fSlguSZW-34">
          <mxGeometry relative="1" as="geometry" />
        </mxCell>
        <mxCell id="cuBsOTPUBlA3fSlguSZW-23" value="终止&lt;br&gt;（Terminated）" style="html=1;align=center;verticalAlign=top;rounded=1;absoluteArcSize=1;arcSize=10;dashed=0;whiteSpace=wrap;strokeWidth=2;fontStyle=1" vertex="1" parent="1">
          <mxGeometry x="337.5" y="440" width="125" height="45" as="geometry" />
        </mxCell>
        <mxCell id="cuBsOTPUBlA3fSlguSZW-26" value="&lt;div style=&quot;text-align: left;&quot;&gt;正常执行完毕&lt;/div&gt;&lt;div style=&quot;text-align: left;&quot;&gt;stop()&lt;/div&gt;&lt;div style=&quot;text-align: left;&quot;&gt;异常抛出&lt;/div&gt;" style="text;html=1;strokeColor=none;fillColor=none;align=center;verticalAlign=middle;whiteSpace=wrap;rounded=0;fontSize=12;fontFamily=Helvetica;fontColor=default;" vertex="1" parent="1">
          <mxGeometry x="400" y="386" width="90" height="50" as="geometry" />
        </mxCell>
        <mxCell id="cuBsOTPUBlA3fSlguSZW-27" style="edgeStyle=orthogonalEdgeStyle;shape=connector;rounded=0;orthogonalLoop=1;jettySize=auto;html=1;exitX=0.5;exitY=1;exitDx=0;exitDy=0;labelBackgroundColor=default;strokeColor=default;strokeWidth=2;fontFamily=Helvetica;fontSize=12;fontColor=default;endArrow=blockThin;endFill=1;" edge="1" parent="1" source="cuBsOTPUBlA3fSlguSZW-5">
          <mxGeometry relative="1" as="geometry">
            <mxPoint x="400" y="160" as="targetPoint" />
          </mxGeometry>
        </mxCell>
        <mxCell id="cuBsOTPUBlA3fSlguSZW-31" value="&lt;div style=&quot;text-align: left;&quot;&gt;&lt;span style=&quot;background-color: initial;&quot;&gt;new&lt;/span&gt;&lt;br&gt;&lt;/div&gt;" style="text;html=1;strokeColor=none;fillColor=none;align=center;verticalAlign=middle;whiteSpace=wrap;rounded=0;fontSize=12;fontFamily=Helvetica;fontColor=default;" vertex="1" parent="1">
          <mxGeometry x="400" y="40" width="40" height="30" as="geometry" />
        </mxCell>
        <mxCell id="cuBsOTPUBlA3fSlguSZW-32" value="&lt;div style=&quot;text-align: left;&quot;&gt;&lt;span style=&quot;background-color: initial;&quot;&gt;Thread#start()&lt;/span&gt;&lt;br&gt;&lt;/div&gt;" style="text;html=1;strokeColor=none;fillColor=none;align=center;verticalAlign=middle;whiteSpace=wrap;rounded=0;fontSize=12;fontFamily=Helvetica;fontColor=default;" vertex="1" parent="1">
          <mxGeometry x="400" y="125" width="82.5" height="30" as="geometry" />
        </mxCell>
        <mxCell id="cuBsOTPUBlA3fSlguSZW-34" value="" style="ellipse;html=1;shape=endState;fillColor=strokeColor;rounded=1;dashed=0;strokeColor=default;strokeWidth=2;fontFamily=Helvetica;fontSize=12;fontColor=default;" vertex="1" parent="1">
          <mxGeometry x="385" y="510" width="30" height="30" as="geometry" />
        </mxCell>
        <mxCell id="cuBsOTPUBlA3fSlguSZW-36" value="运行&lt;br style=&quot;border-color: var(--border-color);&quot;&gt;&lt;span style=&quot;border-color: var(--border-color);&quot;&gt;（Runnable）&lt;/span&gt;" style="text;html=1;align=center;verticalAlign=middle;resizable=0;points=[];autosize=1;strokeColor=none;fillColor=none;fontSize=12;fontFamily=Helvetica;fontColor=default;fontStyle=1" vertex="1" parent="1">
          <mxGeometry x="290" y="160" width="100" height="40" as="geometry" />
        </mxCell>
        <mxCell id="cuBsOTPUBlA3fSlguSZW-42" style="edgeStyle=orthogonalEdgeStyle;shape=connector;rounded=0;orthogonalLoop=1;jettySize=auto;html=1;exitX=1;exitY=0.75;exitDx=0;exitDy=0;labelBackgroundColor=default;strokeColor=default;strokeWidth=2;fontFamily=Helvetica;fontSize=12;fontColor=default;endArrow=blockThin;endFill=1;" edge="1" parent="1" source="cuBsOTPUBlA3fSlguSZW-37">
          <mxGeometry relative="1" as="geometry">
            <mxPoint x="280" y="224" as="targetPoint" />
          </mxGeometry>
        </mxCell>
        <mxCell id="cuBsOTPUBlA3fSlguSZW-37" value="等待&lt;br&gt;（Wait）" style="html=1;align=center;verticalAlign=top;rounded=1;absoluteArcSize=1;arcSize=10;dashed=0;whiteSpace=wrap;strokeWidth=2;fontStyle=1;fillColor=#FFFFCC;" vertex="1" parent="1">
          <mxGeometry x="10" y="190" width="125" height="45" as="geometry" />
        </mxCell>
        <mxCell id="cuBsOTPUBlA3fSlguSZW-43" value="&lt;div style=&quot;text-align: left;&quot;&gt;Object#notify()/notifyAll()&lt;/div&gt;&lt;div style=&quot;text-align: left;&quot;&gt;Object#wait(..)超时&lt;/div&gt;" style="text;html=1;strokeColor=none;fillColor=none;align=center;verticalAlign=middle;whiteSpace=wrap;rounded=0;fontSize=12;fontFamily=Helvetica;fontColor=default;" vertex="1" parent="1">
          <mxGeometry x="135" y="231" width="143" height="29" as="geometry" />
        </mxCell>
        <mxCell id="cuBsOTPUBlA3fSlguSZW-44" value="&lt;div style=&quot;text-align: left;&quot;&gt;Object#wait(..)&lt;/div&gt;&lt;div style=&quot;text-align: left;&quot;&gt;Thread#join(..)&lt;/div&gt;" style="text;html=1;strokeColor=none;fillColor=none;align=center;verticalAlign=middle;whiteSpace=wrap;rounded=0;fontSize=12;fontFamily=Helvetica;fontColor=default;" vertex="1" parent="1">
          <mxGeometry x="142.5" y="160" width="128" height="45" as="geometry" />
        </mxCell>
        <mxCell id="cuBsOTPUBlA3fSlguSZW-63" style="edgeStyle=orthogonalEdgeStyle;shape=connector;rounded=0;orthogonalLoop=1;jettySize=auto;html=1;exitX=1;exitY=0.75;exitDx=0;exitDy=0;entryX=-0.006;entryY=0.877;entryDx=0;entryDy=0;entryPerimeter=0;labelBackgroundColor=default;strokeColor=default;strokeWidth=2;fontFamily=Helvetica;fontSize=12;fontColor=default;endArrow=blockThin;endFill=1;" edge="1" parent="1" source="cuBsOTPUBlA3fSlguSZW-45" target="cuBsOTPUBlA3fSlguSZW-8">
          <mxGeometry relative="1" as="geometry" />
        </mxCell>
        <mxCell id="cuBsOTPUBlA3fSlguSZW-45" value="休眠&lt;br&gt;（Sleeping）" style="html=1;align=center;verticalAlign=top;rounded=1;absoluteArcSize=1;arcSize=10;dashed=0;whiteSpace=wrap;strokeWidth=2;fontStyle=1;fillColor=#E5CCFF;" vertex="1" parent="1">
          <mxGeometry x="10" y="320" width="125" height="45" as="geometry" />
        </mxCell>
        <mxCell id="cuBsOTPUBlA3fSlguSZW-59" style="edgeStyle=orthogonalEdgeStyle;shape=connector;rounded=0;orthogonalLoop=1;jettySize=auto;html=1;exitX=0;exitY=0.75;exitDx=0;exitDy=0;entryX=1;entryY=0.291;entryDx=0;entryDy=0;entryPerimeter=0;labelBackgroundColor=default;strokeColor=default;strokeWidth=2;fontFamily=Helvetica;fontSize=12;fontColor=default;endArrow=blockThin;endFill=1;" edge="1" parent="1" source="cuBsOTPUBlA3fSlguSZW-47" target="cuBsOTPUBlA3fSlguSZW-8">
          <mxGeometry relative="1" as="geometry" />
        </mxCell>
        <mxCell id="cuBsOTPUBlA3fSlguSZW-47" value="监视&lt;br&gt;（Monitor）" style="html=1;align=center;verticalAlign=top;rounded=1;absoluteArcSize=1;arcSize=10;dashed=0;whiteSpace=wrap;strokeWidth=2;fontStyle=1;fillColor=#CCFFFF;" vertex="1" parent="1">
          <mxGeometry x="660" y="190" width="125" height="45" as="geometry" />
        </mxCell>
        <mxCell id="cuBsOTPUBlA3fSlguSZW-54" style="edgeStyle=orthogonalEdgeStyle;shape=connector;rounded=0;orthogonalLoop=1;jettySize=auto;html=1;exitX=0;exitY=0.75;exitDx=0;exitDy=0;entryX=1;entryY=0.882;entryDx=0;entryDy=0;entryPerimeter=0;labelBackgroundColor=default;strokeColor=default;strokeWidth=2;fontFamily=Helvetica;fontSize=12;fontColor=default;endArrow=blockThin;endFill=1;" edge="1" parent="1" source="cuBsOTPUBlA3fSlguSZW-48" target="cuBsOTPUBlA3fSlguSZW-8">
          <mxGeometry relative="1" as="geometry" />
        </mxCell>
        <mxCell id="cuBsOTPUBlA3fSlguSZW-48" value="驻留&lt;br&gt;（Park）" style="html=1;align=center;verticalAlign=top;rounded=1;absoluteArcSize=1;arcSize=10;dashed=0;whiteSpace=wrap;strokeWidth=2;fontStyle=1;fillColor=#FFB366;" vertex="1" parent="1">
          <mxGeometry x="660" y="320" width="125" height="45" as="geometry" />
        </mxCell>
        <mxCell id="cuBsOTPUBlA3fSlguSZW-50" value="LockSupport#park()" style="text;html=1;align=center;verticalAlign=middle;resizable=0;points=[];autosize=1;strokeColor=none;fillColor=none;fontSize=12;fontFamily=Helvetica;fontColor=default;" vertex="1" parent="1">
          <mxGeometry x="520" y="306" width="130" height="30" as="geometry" />
        </mxCell>
        <mxCell id="cuBsOTPUBlA3fSlguSZW-57" value="LockSupport#unpark(..)" style="text;html=1;align=center;verticalAlign=middle;resizable=0;points=[];autosize=1;strokeColor=none;fillColor=none;fontSize=12;fontFamily=Helvetica;fontColor=default;" vertex="1" parent="1">
          <mxGeometry x="520" y="355" width="150" height="30" as="geometry" />
        </mxCell>
        <mxCell id="cuBsOTPUBlA3fSlguSZW-60" value="sychronized等待监视器锁" style="text;html=1;align=center;verticalAlign=middle;resizable=0;points=[];autosize=1;strokeColor=none;fillColor=none;fontSize=12;fontFamily=Helvetica;fontColor=default;" vertex="1" parent="1">
          <mxGeometry x="510" y="175" width="160" height="30" as="geometry" />
        </mxCell>
        <mxCell id="cuBsOTPUBlA3fSlguSZW-61" value="sychronized获得监视器锁" style="text;html=1;align=center;verticalAlign=middle;resizable=0;points=[];autosize=1;strokeColor=none;fillColor=none;fontSize=12;fontFamily=Helvetica;fontColor=default;" vertex="1" parent="1">
          <mxGeometry x="510" y="221" width="160" height="30" as="geometry" />
        </mxCell>
        <mxCell id="cuBsOTPUBlA3fSlguSZW-64" value="&lt;div style=&quot;text-align: left;&quot;&gt;Thread#sleep(..)&lt;/div&gt;" style="text;html=1;strokeColor=none;fillColor=none;align=center;verticalAlign=middle;whiteSpace=wrap;rounded=0;fontSize=12;fontFamily=Helvetica;fontColor=default;" vertex="1" parent="1">
          <mxGeometry x="142.5" y="311" width="128" height="20" as="geometry" />
        </mxCell>
        <mxCell id="cuBsOTPUBlA3fSlguSZW-65" value="&lt;div style=&quot;text-align: left;&quot;&gt;Thread#sleep(..)超时&lt;/div&gt;" style="text;html=1;strokeColor=none;fillColor=none;align=center;verticalAlign=middle;whiteSpace=wrap;rounded=0;fontSize=12;fontFamily=Helvetica;fontColor=default;" vertex="1" parent="1">
          <mxGeometry x="142.5" y="351" width="128" height="29" as="geometry" />
        </mxCell>
      </root>
    </mxGraphModel>
  </diagram>
  <diagram id="Azr-hZfksUpMlROvGyTq" name="ThreadLocalMap">
    <mxGraphModel dx="1804" dy="663" grid="1" gridSize="10" guides="1" tooltips="1" connect="1" arrows="1" fold="1" page="1" pageScale="1" pageWidth="850" pageHeight="1100" math="0" shadow="0">
      <root>
        <mxCell id="0" />
        <mxCell id="1" parent="0" />
        <mxCell id="_RyqqDi9EtR02k0wJjT4-5" value="" style="rounded=1;whiteSpace=wrap;html=1;strokeWidth=2;arcSize=1;fillColor=#E6FFCC;" parent="1" vertex="1">
          <mxGeometry x="-40" y="200" width="410" height="590" as="geometry" />
        </mxCell>
        <mxCell id="_RyqqDi9EtR02k0wJjT4-6" value="&lt;b style=&quot;font-size: 18px;&quot;&gt;&lt;font style=&quot;font-size: 18px;&quot;&gt;Thread&lt;/font&gt;&lt;/b&gt;" style="text;html=1;strokeColor=none;fillColor=none;align=center;verticalAlign=middle;whiteSpace=wrap;rounded=0;fontSize=18;" parent="1" vertex="1">
          <mxGeometry x="135" y="200" width="60" height="30" as="geometry" />
        </mxCell>
        <mxCell id="_RyqqDi9EtR02k0wJjT4-7" value="" style="rounded=1;whiteSpace=wrap;html=1;strokeWidth=2;arcSize=3;fillColor=#E6FFCC;" parent="1" vertex="1">
          <mxGeometry x="480" y="200" width="280" height="300" as="geometry" />
        </mxCell>
        <mxCell id="_RyqqDi9EtR02k0wJjT4-8" value="&lt;b style=&quot;font-size: 18px;&quot;&gt;&lt;font style=&quot;font-size: 18px;&quot;&gt;ThreadLocal&lt;/font&gt;&lt;/b&gt;" style="text;html=1;strokeColor=none;fillColor=none;align=center;verticalAlign=middle;whiteSpace=wrap;rounded=0;fontSize=18;" parent="1" vertex="1">
          <mxGeometry x="565" y="200" width="110" height="30" as="geometry" />
        </mxCell>
        <mxCell id="_RyqqDi9EtR02k0wJjT4-10" value="" style="rounded=1;whiteSpace=wrap;html=1;strokeWidth=2;arcSize=8;fillColor=#E6FFCC;" parent="1" vertex="1">
          <mxGeometry x="500" y="240" width="240" height="90" as="geometry" />
        </mxCell>
        <mxCell id="_RyqqDi9EtR02k0wJjT4-9" value="&lt;b&gt;&lt;font style=&quot;font-size: 18px;&quot;&gt;ThreadLocalMap&lt;/font&gt;&lt;/b&gt;" style="text;html=1;strokeColor=none;fillColor=none;align=center;verticalAlign=middle;whiteSpace=wrap;rounded=0;" parent="1" vertex="1">
          <mxGeometry x="550" y="240" width="140" height="30" as="geometry" />
        </mxCell>
        <mxCell id="_RyqqDi9EtR02k0wJjT4-20" value="" style="rounded=0;whiteSpace=wrap;html=1;fillColor=#FFFFCC;strokeColor=#FFCC99;strokeWidth=2;fontSize=14;" parent="1" vertex="1">
          <mxGeometry x="-20" y="270" width="370" height="150" as="geometry" />
        </mxCell>
        <mxCell id="_RyqqDi9EtR02k0wJjT4-24" value="Entry(ThreadLocal&amp;lt;?&amp;gt; k, Object v)" style="rounded=1;whiteSpace=wrap;html=1;strokeWidth=2;arcSize=8;fillColor=#E6FFCC;fontStyle=1" parent="1" vertex="1">
          <mxGeometry x="510" y="280" width="220" height="40" as="geometry" />
        </mxCell>
        <mxCell id="_RyqqDi9EtR02k0wJjT4-25" value="线程本地存储" style="text;whiteSpace=wrap;fontSize=14;fontFamily=Helvetica;fontColor=default;" parent="1" vertex="1">
          <mxGeometry x="580" y="255" width="90" height="30" as="geometry" />
        </mxCell>
        <mxCell id="_RyqqDi9EtR02k0wJjT4-26" value="线程本地变量" style="text;whiteSpace=wrap;fontSize=14;fontFamily=Helvetica;fontColor=default;" parent="1" vertex="1">
          <mxGeometry x="580" y="215" width="100" height="40" as="geometry" />
        </mxCell>
        <mxCell id="_RyqqDi9EtR02k0wJjT4-28" value="存储线程本地变量（副本），子线程无法访问" style="text;whiteSpace=wrap;fontSize=15;fontFamily=Helvetica;fontColor=default;" parent="1" vertex="1">
          <mxGeometry x="-20" y="240" width="340" height="30" as="geometry" />
        </mxCell>
        <mxCell id="MG4GooOXREUBD_d-nUfD-21" style="edgeStyle=orthogonalEdgeStyle;shape=connector;rounded=0;orthogonalLoop=1;jettySize=auto;html=1;exitX=0;exitY=0.5;exitDx=0;exitDy=0;entryX=1;entryY=0.5;entryDx=0;entryDy=0;labelBackgroundColor=default;strokeColor=#FFB570;strokeWidth=2;fontFamily=Helvetica;fontSize=11;fontColor=default;endArrow=blockThin;endFill=1;" parent="1" source="_RyqqDi9EtR02k0wJjT4-29" target="MG4GooOXREUBD_d-nUfD-9" edge="1">
          <mxGeometry relative="1" as="geometry">
            <Array as="points">
              <mxPoint x="420" y="395" />
              <mxPoint x="420" y="330" />
            </Array>
          </mxGeometry>
        </mxCell>
        <mxCell id="_RyqqDi9EtR02k0wJjT4-29" value="set(T value)" style="rounded=0;whiteSpace=wrap;html=1;fillColor=#dae8fc;strokeColor=#6c8ebf;strokeWidth=2;fontSize=14;" parent="1" vertex="1">
          <mxGeometry x="515" y="380" width="215" height="30" as="geometry" />
        </mxCell>
        <mxCell id="MG4GooOXREUBD_d-nUfD-23" style="edgeStyle=orthogonalEdgeStyle;shape=connector;rounded=0;orthogonalLoop=1;jettySize=auto;html=1;exitX=0;exitY=0.5;exitDx=0;exitDy=0;entryX=1;entryY=0.5;entryDx=0;entryDy=0;labelBackgroundColor=default;strokeColor=#FFB570;strokeWidth=2;fontFamily=Helvetica;fontSize=11;fontColor=default;endArrow=blockThin;endFill=1;" parent="1" source="_RyqqDi9EtR02k0wJjT4-30" target="MG4GooOXREUBD_d-nUfD-9" edge="1">
          <mxGeometry relative="1" as="geometry">
            <Array as="points">
              <mxPoint x="420" y="435" />
              <mxPoint x="420" y="330" />
            </Array>
          </mxGeometry>
        </mxCell>
        <mxCell id="_RyqqDi9EtR02k0wJjT4-30" value="get()" style="rounded=0;whiteSpace=wrap;html=1;fillColor=#dae8fc;strokeColor=#6c8ebf;strokeWidth=2;fontSize=14;" parent="1" vertex="1">
          <mxGeometry x="515" y="420" width="215" height="30" as="geometry" />
        </mxCell>
        <mxCell id="MG4GooOXREUBD_d-nUfD-25" style="edgeStyle=orthogonalEdgeStyle;shape=connector;rounded=0;orthogonalLoop=1;jettySize=auto;html=1;exitX=0;exitY=0.5;exitDx=0;exitDy=0;entryX=1;entryY=0.5;entryDx=0;entryDy=0;labelBackgroundColor=default;strokeColor=#FFB570;strokeWidth=2;fontFamily=Helvetica;fontSize=11;fontColor=default;endArrow=blockThin;endFill=1;" parent="1" source="_RyqqDi9EtR02k0wJjT4-31" target="MG4GooOXREUBD_d-nUfD-9" edge="1">
          <mxGeometry relative="1" as="geometry">
            <Array as="points">
              <mxPoint x="420" y="475" />
              <mxPoint x="420" y="330" />
            </Array>
          </mxGeometry>
        </mxCell>
        <mxCell id="_RyqqDi9EtR02k0wJjT4-31" value="remove()" style="rounded=0;whiteSpace=wrap;html=1;fillColor=#dae8fc;strokeColor=#6c8ebf;strokeWidth=2;fontSize=14;" parent="1" vertex="1">
          <mxGeometry x="515" y="460" width="215" height="30" as="geometry" />
        </mxCell>
        <mxCell id="ExoECbE0-CWxu4xjMzYz-4" style="edgeStyle=orthogonalEdgeStyle;rounded=0;orthogonalLoop=1;jettySize=auto;html=1;exitX=0.5;exitY=0;exitDx=0;exitDy=0;entryX=0.5;entryY=1;entryDx=0;entryDy=0;strokeWidth=2;endArrow=block;endFill=0;strokeColor=#FF0000;" parent="1" source="_RyqqDi9EtR02k0wJjT4-33" target="_RyqqDi9EtR02k0wJjT4-7" edge="1">
          <mxGeometry relative="1" as="geometry" />
        </mxCell>
        <mxCell id="_RyqqDi9EtR02k0wJjT4-33" value="" style="rounded=1;whiteSpace=wrap;html=1;strokeWidth=2;arcSize=3;fillColor=#E6FFCC;" parent="1" vertex="1">
          <mxGeometry x="480" y="540" width="280" height="250" as="geometry" />
        </mxCell>
        <mxCell id="_RyqqDi9EtR02k0wJjT4-35" value="InheritableThreadLocal" style="text;html=1;align=center;verticalAlign=middle;resizable=0;points=[];autosize=1;strokeColor=none;fillColor=none;fontSize=18;fontFamily=Helvetica;fontColor=default;fontStyle=1" parent="1" vertex="1">
          <mxGeometry x="515" y="540" width="220" height="40" as="geometry" />
        </mxCell>
        <mxCell id="MG4GooOXREUBD_d-nUfD-2" value="ThreadLocalMap threadLocals" style="text;html=1;align=center;verticalAlign=middle;resizable=0;points=[];autosize=1;strokeColor=none;fillColor=none;fontSize=15;" parent="1" vertex="1">
          <mxGeometry x="-20" y="270" width="230" height="30" as="geometry" />
        </mxCell>
        <mxCell id="ExoECbE0-CWxu4xjMzYz-11" style="edgeStyle=orthogonalEdgeStyle;rounded=0;orthogonalLoop=1;jettySize=auto;html=1;exitX=1;exitY=0.25;exitDx=0;exitDy=0;entryX=0;entryY=0.5;entryDx=0;entryDy=0;strokeWidth=2;endArrow=blockThin;endFill=1;strokeColor=#009900;" parent="1" source="MG4GooOXREUBD_d-nUfD-4" target="ExoECbE0-CWxu4xjMzYz-8" edge="1">
          <mxGeometry relative="1" as="geometry" />
        </mxCell>
        <mxCell id="MG4GooOXREUBD_d-nUfD-4" value="" style="rounded=0;whiteSpace=wrap;html=1;fillColor=#FFFFCC;strokeColor=#FFCC99;strokeWidth=2;fontSize=14;" parent="1" vertex="1">
          <mxGeometry x="-20" y="550" width="370" height="150" as="geometry" />
        </mxCell>
        <mxCell id="MG4GooOXREUBD_d-nUfD-5" value="ThreadLocalMap inheritableThreadLocals" style="text;html=1;align=center;verticalAlign=middle;resizable=0;points=[];autosize=1;strokeColor=none;fillColor=none;fontSize=15;" parent="1" vertex="1">
          <mxGeometry x="-20" y="550" width="300" height="30" as="geometry" />
        </mxCell>
        <mxCell id="_RyqqDi9EtR02k0wJjT4-27" value="子线程继承父线程的线程本地变量的值（复制一份副本），&#xa;且，不影响父线程的线程本地变量值" style="text;whiteSpace=wrap;fontSize=15;fontFamily=Helvetica;fontColor=default;" parent="1" vertex="1">
          <mxGeometry x="-20" y="506" width="400" height="40" as="geometry" />
        </mxCell>
        <mxCell id="MG4GooOXREUBD_d-nUfD-6" value="ThreadLocal" style="rounded=0;whiteSpace=wrap;html=1;fillColor=#FFF2CC;strokeColor=#FFB366;" parent="1" vertex="1">
          <mxGeometry y="310" width="110" height="40" as="geometry" />
        </mxCell>
        <mxCell id="MG4GooOXREUBD_d-nUfD-8" value="ThreadLocal" style="rounded=0;whiteSpace=wrap;html=1;fillColor=#FFF2CC;strokeColor=#FFB366;" parent="1" vertex="1">
          <mxGeometry x="110" y="310" width="110" height="40" as="geometry" />
        </mxCell>
        <mxCell id="MG4GooOXREUBD_d-nUfD-15" style="edgeStyle=orthogonalEdgeStyle;shape=connector;rounded=0;orthogonalLoop=1;jettySize=auto;html=1;exitX=1;exitY=0.5;exitDx=0;exitDy=0;labelBackgroundColor=default;strokeColor=#FFB366;strokeWidth=2;fontFamily=Helvetica;fontSize=11;fontColor=default;endArrow=none;endFill=0;startArrow=blockThin;startFill=1;" parent="1" source="MG4GooOXREUBD_d-nUfD-9" edge="1">
          <mxGeometry relative="1" as="geometry">
            <mxPoint x="480" y="250" as="targetPoint" />
            <Array as="points">
              <mxPoint x="420" y="330" />
              <mxPoint x="420" y="250" />
            </Array>
          </mxGeometry>
        </mxCell>
        <mxCell id="MG4GooOXREUBD_d-nUfD-9" value="ThreadLocal" style="rounded=0;whiteSpace=wrap;html=1;fillColor=#FFF2CC;strokeColor=#FFB366;" parent="1" vertex="1">
          <mxGeometry x="220" y="310" width="110" height="40" as="geometry" />
        </mxCell>
        <mxCell id="MG4GooOXREUBD_d-nUfD-10" value="ThreadLocal" style="rounded=0;whiteSpace=wrap;html=1;fillColor=#FFF2CC;strokeColor=#FFB366;" parent="1" vertex="1">
          <mxGeometry y="350" width="110" height="40" as="geometry" />
        </mxCell>
        <mxCell id="MG4GooOXREUBD_d-nUfD-11" value="ThreadLocal" style="rounded=0;whiteSpace=wrap;html=1;fillColor=#FFF2CC;strokeColor=#FFB366;" parent="1" vertex="1">
          <mxGeometry x="110" y="350" width="110" height="40" as="geometry" />
        </mxCell>
        <mxCell id="MG4GooOXREUBD_d-nUfD-12" value="ThreadLocal" style="rounded=0;whiteSpace=wrap;html=1;fillColor=#FFF2CC;strokeColor=#FFB366;" parent="1" vertex="1">
          <mxGeometry x="220" y="350" width="110" height="40" as="geometry" />
        </mxCell>
        <mxCell id="MG4GooOXREUBD_d-nUfD-14" style="edgeStyle=orthogonalEdgeStyle;rounded=0;orthogonalLoop=1;jettySize=auto;html=1;exitX=0;exitY=0.5;exitDx=0;exitDy=0;entryX=1;entryY=0.25;entryDx=0;entryDy=0;strokeWidth=2;endArrow=none;endFill=0;strokeColor=#009900;startArrow=blockThin;startFill=1;" parent="1" source="MG4GooOXREUBD_d-nUfD-13" target="_RyqqDi9EtR02k0wJjT4-20" edge="1">
          <mxGeometry relative="1" as="geometry">
            <Array as="points">
              <mxPoint x="440" y="355" />
              <mxPoint x="440" y="308" />
            </Array>
          </mxGeometry>
        </mxCell>
        <mxCell id="MG4GooOXREUBD_d-nUfD-18" style="edgeStyle=orthogonalEdgeStyle;shape=connector;rounded=0;orthogonalLoop=1;jettySize=auto;html=1;exitX=1;exitY=0.5;exitDx=0;exitDy=0;entryX=1;entryY=0.5;entryDx=0;entryDy=0;labelBackgroundColor=default;strokeColor=#3399FF;strokeWidth=2;fontFamily=Helvetica;fontSize=11;fontColor=default;endArrow=blockThin;endFill=1;" parent="1" source="MG4GooOXREUBD_d-nUfD-13" target="_RyqqDi9EtR02k0wJjT4-29" edge="1">
          <mxGeometry relative="1" as="geometry" />
        </mxCell>
        <mxCell id="MG4GooOXREUBD_d-nUfD-19" style="edgeStyle=orthogonalEdgeStyle;shape=connector;rounded=0;orthogonalLoop=1;jettySize=auto;html=1;exitX=1;exitY=0.5;exitDx=0;exitDy=0;entryX=1;entryY=0.5;entryDx=0;entryDy=0;labelBackgroundColor=default;strokeColor=#3399FF;strokeWidth=2;fontFamily=Helvetica;fontSize=11;fontColor=default;endArrow=blockThin;endFill=1;" parent="1" source="MG4GooOXREUBD_d-nUfD-13" target="_RyqqDi9EtR02k0wJjT4-30" edge="1">
          <mxGeometry relative="1" as="geometry" />
        </mxCell>
        <mxCell id="MG4GooOXREUBD_d-nUfD-20" style="edgeStyle=orthogonalEdgeStyle;shape=connector;rounded=0;orthogonalLoop=1;jettySize=auto;html=1;exitX=1;exitY=0.5;exitDx=0;exitDy=0;entryX=1;entryY=0.5;entryDx=0;entryDy=0;labelBackgroundColor=default;strokeColor=#3399FF;strokeWidth=2;fontFamily=Helvetica;fontSize=11;fontColor=default;endArrow=blockThin;endFill=1;" parent="1" source="MG4GooOXREUBD_d-nUfD-13" target="_RyqqDi9EtR02k0wJjT4-31" edge="1">
          <mxGeometry relative="1" as="geometry" />
        </mxCell>
        <mxCell id="MG4GooOXREUBD_d-nUfD-13" value="getMap(Thread t)" style="rounded=0;whiteSpace=wrap;html=1;fillColor=#dae8fc;strokeColor=#6c8ebf;strokeWidth=2;fontSize=14;" parent="1" vertex="1">
          <mxGeometry x="515" y="340" width="215" height="30" as="geometry" />
        </mxCell>
        <mxCell id="YssNnUDqJCPwGEcrOYKv-1" value="从当前线程中获取线程的threadLocals&lt;br&gt;&lt;div&gt;Thread t = Thread.currentThread();&lt;/div&gt;&lt;div&gt;ThreadLocalMap map = getMap(t);&lt;/div&gt;" style="text;html=1;strokeColor=none;fillColor=none;align=left;verticalAlign=middle;whiteSpace=wrap;rounded=0;fontSize=14;" parent="1" vertex="1">
          <mxGeometry x="770" y="355" width="270" height="70" as="geometry" />
        </mxCell>
        <mxCell id="YssNnUDqJCPwGEcrOYKv-4" value="t.threadLocals;" style="text;whiteSpace=wrap;fontSize=14;" parent="1" vertex="1">
          <mxGeometry x="425" y="350" width="100" height="30" as="geometry" />
        </mxCell>
        <mxCell id="5xwk8FITNnMvCEfg_H7U-1" value="如果map == null，则createMap(Thread t, T value)&lt;br&gt;&lt;b&gt;创建threadLocals&lt;br&gt;&lt;/b&gt;1. set(T value) 则 将value作为值进行创建&lt;br&gt;2. get() 则 setInitialValue()，返回null" style="text;html=1;strokeColor=none;fillColor=none;align=left;verticalAlign=middle;whiteSpace=wrap;rounded=0;fontSize=14;" parent="1" vertex="1">
          <mxGeometry x="770" y="425" width="320" height="75" as="geometry" />
        </mxCell>
        <mxCell id="ExoECbE0-CWxu4xjMzYz-1" value="子线程不继承" style="text;whiteSpace=wrap;fontSize=14;fontFamily=Helvetica;fontColor=default;" parent="1" vertex="1">
          <mxGeometry x="385" y="210" width="100" height="30" as="geometry" />
        </mxCell>
        <mxCell id="ExoECbE0-CWxu4xjMzYz-2" value="子线程继承" style="text;whiteSpace=wrap;fontSize=14;fontFamily=Helvetica;fontColor=default;" parent="1" vertex="1">
          <mxGeometry x="390" y="545" width="90" height="30" as="geometry" />
        </mxCell>
        <mxCell id="ExoECbE0-CWxu4xjMzYz-5" value="extends" style="text;whiteSpace=wrap;fontSize=16;fontFamily=Helvetica;fontColor=#FF0000;fontStyle=1" parent="1" vertex="1">
          <mxGeometry x="626" y="504" width="70" height="30" as="geometry" />
        </mxCell>
        <mxCell id="UcxJWag-WLzyUFxBq3Pp-12" style="edgeStyle=orthogonalEdgeStyle;rounded=0;orthogonalLoop=1;jettySize=auto;html=1;exitX=0;exitY=0.5;exitDx=0;exitDy=0;entryX=1;entryY=0.5;entryDx=0;entryDy=0;strokeWidth=2;endArrow=blockThin;endFill=1;strokeColor=#FF9933;" edge="1" parent="1" source="ExoECbE0-CWxu4xjMzYz-6" target="UcxJWag-WLzyUFxBq3Pp-9">
          <mxGeometry relative="1" as="geometry">
            <Array as="points">
              <mxPoint x="510" y="610" />
            </Array>
          </mxGeometry>
        </mxCell>
        <mxCell id="ExoECbE0-CWxu4xjMzYz-6" value="childValue(T parentValue)" style="rounded=0;whiteSpace=wrap;html=1;fillColor=#e1d5e7;strokeColor=#9673a6;strokeWidth=2;fontSize=14;" parent="1" vertex="1">
          <mxGeometry x="510" y="590" width="215" height="30" as="geometry" />
        </mxCell>
        <mxCell id="ExoECbE0-CWxu4xjMzYz-8" value="getMap(Thread t)" style="rounded=0;whiteSpace=wrap;html=1;fillColor=#e1d5e7;strokeColor=#9673a6;strokeWidth=2;fontSize=14;" parent="1" vertex="1">
          <mxGeometry x="510" y="650" width="215" height="30" as="geometry" />
        </mxCell>
        <mxCell id="ExoECbE0-CWxu4xjMzYz-14" style="edgeStyle=orthogonalEdgeStyle;rounded=0;orthogonalLoop=1;jettySize=auto;html=1;exitX=0;exitY=0.5;exitDx=0;exitDy=0;entryX=0.5;entryY=1;entryDx=0;entryDy=0;strokeWidth=2;endArrow=blockThin;endFill=1;strokeColor=#FF9933;" parent="1" source="ExoECbE0-CWxu4xjMzYz-9" target="MG4GooOXREUBD_d-nUfD-4" edge="1">
          <mxGeometry relative="1" as="geometry" />
        </mxCell>
        <mxCell id="ExoECbE0-CWxu4xjMzYz-9" value="createMap(Thread t, T firstValue)" style="rounded=0;whiteSpace=wrap;html=1;fillColor=#e1d5e7;strokeColor=#9673a6;strokeWidth=2;fontSize=14;" parent="1" vertex="1">
          <mxGeometry x="510" y="710" width="215" height="30" as="geometry" />
        </mxCell>
        <mxCell id="ExoECbE0-CWxu4xjMzYz-10" value="t.inheritableThreadLocals" style="text;html=1;align=center;verticalAlign=middle;resizable=0;points=[];autosize=1;strokeColor=none;fillColor=none;fontSize=14;" parent="1" vertex="1">
          <mxGeometry x="420" y="670" width="180" height="30" as="geometry" />
        </mxCell>
        <mxCell id="ExoECbE0-CWxu4xjMzYz-12" value="如果map == null，则createMap(Thread t, T firstvalue)&lt;br&gt;&lt;b&gt;创建inheritableThreadLocals&lt;br&gt;&lt;/b&gt;1. set(T value) 则 将value作为值进行创建&lt;br&gt;2. get() 则 setInitialValue()，返回null" style="text;html=1;strokeColor=none;fillColor=none;align=left;verticalAlign=middle;whiteSpace=wrap;rounded=0;fontSize=14;" parent="1" vertex="1">
          <mxGeometry x="770" y="635" width="340" height="75" as="geometry" />
        </mxCell>
        <mxCell id="UcxJWag-WLzyUFxBq3Pp-1" value="inheritableThreadLocal" style="rounded=0;whiteSpace=wrap;html=1;fillColor=#FFF2CC;strokeColor=#FFB366;" vertex="1" parent="1">
          <mxGeometry x="5" y="590" width="160" height="40" as="geometry" />
        </mxCell>
        <mxCell id="UcxJWag-WLzyUFxBq3Pp-9" value="inheritableThreadLocal" style="rounded=0;whiteSpace=wrap;html=1;fillColor=#FFF2CC;strokeColor=#FFB366;" vertex="1" parent="1">
          <mxGeometry x="165" y="590" width="160" height="40" as="geometry" />
        </mxCell>
        <mxCell id="UcxJWag-WLzyUFxBq3Pp-10" value="inheritableThreadLocal" style="rounded=0;whiteSpace=wrap;html=1;fillColor=#FFF2CC;strokeColor=#FFB366;" vertex="1" parent="1">
          <mxGeometry x="5" y="630" width="160" height="40" as="geometry" />
        </mxCell>
        <mxCell id="UcxJWag-WLzyUFxBq3Pp-11" value="inheritableThreadLocal" style="rounded=0;whiteSpace=wrap;html=1;fillColor=#FFF2CC;strokeColor=#FFB366;" vertex="1" parent="1">
          <mxGeometry x="165" y="630" width="160" height="40" as="geometry" />
        </mxCell>
      </root>
    </mxGraphModel>
  </diagram>
  <diagram id="qSSYmYDvhrYGPhhtijJs" name="setandget-threadLocal">
    <mxGraphModel dx="104" dy="658" grid="1" gridSize="10" guides="1" tooltips="1" connect="1" arrows="1" fold="1" page="1" pageScale="1" pageWidth="850" pageHeight="1100" math="0" shadow="0">
      <root>
        <mxCell id="0" />
        <mxCell id="1" parent="0" />
        <mxCell id="tD3soPmn0NJGJOwVFee4-1" style="edgeStyle=orthogonalEdgeStyle;rounded=0;orthogonalLoop=1;jettySize=auto;html=1;exitX=0.5;exitY=1;exitDx=0;exitDy=0;entryX=0.5;entryY=0;entryDx=0;entryDy=0;" parent="1" source="tD3soPmn0NJGJOwVFee4-2" target="tD3soPmn0NJGJOwVFee4-7" edge="1">
          <mxGeometry relative="1" as="geometry" />
        </mxCell>
        <mxCell id="tD3soPmn0NJGJOwVFee4-2" value="myThreadLocal.set(0)" style="rounded=0;whiteSpace=wrap;html=1;fillColor=#E6FFCC;" parent="1" vertex="1">
          <mxGeometry x="1180" y="210" width="120" height="40" as="geometry" />
        </mxCell>
        <mxCell id="tD3soPmn0NJGJOwVFee4-3" style="edgeStyle=orthogonalEdgeStyle;rounded=0;orthogonalLoop=1;jettySize=auto;html=1;exitX=0.5;exitY=1;exitDx=0;exitDy=0;entryX=0.5;entryY=0;entryDx=0;entryDy=0;" parent="1" source="tD3soPmn0NJGJOwVFee4-4" target="tD3soPmn0NJGJOwVFee4-11" edge="1">
          <mxGeometry relative="1" as="geometry" />
        </mxCell>
        <mxCell id="tD3soPmn0NJGJOwVFee4-4" value="myThreadLocal.get()" style="rounded=0;whiteSpace=wrap;html=1;fillColor=#E6FFCC;" parent="1" vertex="1">
          <mxGeometry x="1710" y="210" width="120" height="40" as="geometry" />
        </mxCell>
        <mxCell id="tD3soPmn0NJGJOwVFee4-5" value="Y" style="edgeStyle=orthogonalEdgeStyle;rounded=0;orthogonalLoop=1;jettySize=auto;html=1;exitX=0.5;exitY=1;exitDx=0;exitDy=0;entryX=0.5;entryY=0;entryDx=0;entryDy=0;" parent="1" source="tD3soPmn0NJGJOwVFee4-7" target="tD3soPmn0NJGJOwVFee4-8" edge="1">
          <mxGeometry relative="1" as="geometry">
            <Array as="points">
              <mxPoint x="1240" y="325" />
              <mxPoint x="1125" y="325" />
            </Array>
          </mxGeometry>
        </mxCell>
        <mxCell id="tD3soPmn0NJGJOwVFee4-6" value="N" style="edgeStyle=orthogonalEdgeStyle;rounded=0;orthogonalLoop=1;jettySize=auto;html=1;exitX=0.5;exitY=1;exitDx=0;exitDy=0;entryX=0.5;entryY=0;entryDx=0;entryDy=0;" parent="1" source="tD3soPmn0NJGJOwVFee4-7" target="tD3soPmn0NJGJOwVFee4-15" edge="1">
          <mxGeometry relative="1" as="geometry">
            <mxPoint x="1355" y="345" as="targetPoint" />
            <Array as="points">
              <mxPoint x="1240" y="325" />
              <mxPoint x="1375" y="325" />
            </Array>
          </mxGeometry>
        </mxCell>
        <mxCell id="tD3soPmn0NJGJOwVFee4-7" value="threadLocals == null ?" style="rhombus;whiteSpace=wrap;html=1;fillColor=#FFB366;" parent="1" vertex="1">
          <mxGeometry x="1170" y="275" width="140" height="45" as="geometry" />
        </mxCell>
        <mxCell id="tD3soPmn0NJGJOwVFee4-8" value="createMap(currentThread, value)" style="rounded=0;whiteSpace=wrap;html=1;fillColor=#CCE5FF;" parent="1" vertex="1">
          <mxGeometry x="1030" y="345" width="190" height="40" as="geometry" />
        </mxCell>
        <mxCell id="tD3soPmn0NJGJOwVFee4-9" value="N" style="edgeStyle=orthogonalEdgeStyle;rounded=0;orthogonalLoop=1;jettySize=auto;html=1;exitX=0.5;exitY=1;exitDx=0;exitDy=0;entryX=0.5;entryY=0;entryDx=0;entryDy=0;" parent="1" source="tD3soPmn0NJGJOwVFee4-11" target="tD3soPmn0NJGJOwVFee4-17" edge="1">
          <mxGeometry relative="1" as="geometry">
            <Array as="points">
              <mxPoint x="1770" y="317.5" />
              <mxPoint x="1935" y="317.5" />
            </Array>
          </mxGeometry>
        </mxCell>
        <mxCell id="tD3soPmn0NJGJOwVFee4-10" style="edgeStyle=orthogonalEdgeStyle;rounded=0;orthogonalLoop=1;jettySize=auto;html=1;exitX=0.5;exitY=1;exitDx=0;exitDy=0;entryX=0.5;entryY=0;entryDx=0;entryDy=0;" parent="1" source="tD3soPmn0NJGJOwVFee4-11" target="tD3soPmn0NJGJOwVFee4-19" edge="1">
          <mxGeometry relative="1" as="geometry">
            <Array as="points">
              <mxPoint x="1770" y="317.5" />
              <mxPoint x="1655" y="317.5" />
            </Array>
          </mxGeometry>
        </mxCell>
        <mxCell id="tD3soPmn0NJGJOwVFee4-11" value="threadLocal == null ?" style="rhombus;whiteSpace=wrap;html=1;fillColor=#FFB366;" parent="1" vertex="1">
          <mxGeometry x="1700" y="270" width="140" height="45" as="geometry" />
        </mxCell>
        <mxCell id="tD3soPmn0NJGJOwVFee4-12" value="threadLocals.getEntry(myThreadLocal)" style="rounded=0;whiteSpace=wrap;html=1;fillColor=#CCE5FF;" parent="1" vertex="1">
          <mxGeometry x="1820" y="397.5" width="230" height="40" as="geometry" />
        </mxCell>
        <mxCell id="tD3soPmn0NJGJOwVFee4-13" value="threadLocals.set(myThreadLocal, value)" style="rounded=0;whiteSpace=wrap;html=1;fillColor=#CCE5FF;" parent="1" vertex="1">
          <mxGeometry x="1260" y="405" width="230" height="40" as="geometry" />
        </mxCell>
        <mxCell id="tD3soPmn0NJGJOwVFee4-14" style="edgeStyle=orthogonalEdgeStyle;rounded=0;orthogonalLoop=1;jettySize=auto;html=1;exitX=0.5;exitY=1;exitDx=0;exitDy=0;entryX=0.5;entryY=0;entryDx=0;entryDy=0;" parent="1" source="tD3soPmn0NJGJOwVFee4-15" target="tD3soPmn0NJGJOwVFee4-13" edge="1">
          <mxGeometry relative="1" as="geometry" />
        </mxCell>
        <mxCell id="tD3soPmn0NJGJOwVFee4-15" value="currentThread.getMap()：threadLocals" style="rounded=0;whiteSpace=wrap;html=1;fillColor=#CCE5FF;" parent="1" vertex="1">
          <mxGeometry x="1260" y="345" width="230" height="40" as="geometry" />
        </mxCell>
        <mxCell id="tD3soPmn0NJGJOwVFee4-16" style="edgeStyle=orthogonalEdgeStyle;rounded=0;orthogonalLoop=1;jettySize=auto;html=1;exitX=0.5;exitY=1;exitDx=0;exitDy=0;entryX=0.5;entryY=0;entryDx=0;entryDy=0;" parent="1" source="tD3soPmn0NJGJOwVFee4-17" target="tD3soPmn0NJGJOwVFee4-12" edge="1">
          <mxGeometry relative="1" as="geometry" />
        </mxCell>
        <mxCell id="tD3soPmn0NJGJOwVFee4-17" value="currentThread.getMap()：threadLocals" style="rounded=0;whiteSpace=wrap;html=1;fillColor=#CCE5FF;" parent="1" vertex="1">
          <mxGeometry x="1820" y="337.5" width="230" height="40" as="geometry" />
        </mxCell>
        <mxCell id="tD3soPmn0NJGJOwVFee4-18" style="edgeStyle=orthogonalEdgeStyle;rounded=0;orthogonalLoop=1;jettySize=auto;html=1;exitX=0.5;exitY=1;exitDx=0;exitDy=0;entryX=0.5;entryY=0;entryDx=0;entryDy=0;" parent="1" source="tD3soPmn0NJGJOwVFee4-19" target="tD3soPmn0NJGJOwVFee4-22" edge="1">
          <mxGeometry relative="1" as="geometry" />
        </mxCell>
        <mxCell id="tD3soPmn0NJGJOwVFee4-19" value="setInitialValue()" style="rounded=0;whiteSpace=wrap;html=1;fillColor=#CCE5FF;" parent="1" vertex="1">
          <mxGeometry x="1560" y="337.5" width="190" height="40" as="geometry" />
        </mxCell>
        <mxCell id="tD3soPmn0NJGJOwVFee4-20" value="createMap(currentThread, value)" style="rounded=0;whiteSpace=wrap;html=1;fillColor=#CCE5FF;" parent="1" vertex="1">
          <mxGeometry x="1450" y="527.5" width="190" height="40" as="geometry" />
        </mxCell>
        <mxCell id="tD3soPmn0NJGJOwVFee4-21" style="edgeStyle=orthogonalEdgeStyle;rounded=0;orthogonalLoop=1;jettySize=auto;html=1;exitX=0.5;exitY=1;exitDx=0;exitDy=0;entryX=0.5;entryY=0;entryDx=0;entryDy=0;" parent="1" source="tD3soPmn0NJGJOwVFee4-22" target="tD3soPmn0NJGJOwVFee4-25" edge="1">
          <mxGeometry relative="1" as="geometry" />
        </mxCell>
        <mxCell id="tD3soPmn0NJGJOwVFee4-22" value="value = initialValue()：null" style="rounded=0;whiteSpace=wrap;html=1;fillColor=#CCE5FF;" parent="1" vertex="1">
          <mxGeometry x="1560" y="397.5" width="190" height="40" as="geometry" />
        </mxCell>
        <mxCell id="tD3soPmn0NJGJOwVFee4-23" value="Y" style="edgeStyle=orthogonalEdgeStyle;rounded=0;orthogonalLoop=1;jettySize=auto;html=1;exitX=0.5;exitY=1;exitDx=0;exitDy=0;" parent="1" source="tD3soPmn0NJGJOwVFee4-25" target="tD3soPmn0NJGJOwVFee4-20" edge="1">
          <mxGeometry relative="1" as="geometry">
            <Array as="points">
              <mxPoint x="1655" y="507.5" />
              <mxPoint x="1545" y="507.5" />
            </Array>
          </mxGeometry>
        </mxCell>
        <mxCell id="tD3soPmn0NJGJOwVFee4-24" value="N" style="edgeStyle=orthogonalEdgeStyle;rounded=0;orthogonalLoop=1;jettySize=auto;html=1;exitX=0.5;exitY=1;exitDx=0;exitDy=0;" parent="1" source="tD3soPmn0NJGJOwVFee4-25" target="tD3soPmn0NJGJOwVFee4-26" edge="1">
          <mxGeometry relative="1" as="geometry">
            <Array as="points">
              <mxPoint x="1655" y="507.5" />
              <mxPoint x="1788" y="507.5" />
            </Array>
          </mxGeometry>
        </mxCell>
        <mxCell id="tD3soPmn0NJGJOwVFee4-25" value="threadLocals == null ?" style="rhombus;whiteSpace=wrap;html=1;fillColor=#FFB366;" parent="1" vertex="1">
          <mxGeometry x="1585" y="457.5" width="140" height="45" as="geometry" />
        </mxCell>
        <mxCell id="tD3soPmn0NJGJOwVFee4-26" value="threadLocals.set(myThreadLocal, value)" style="rounded=0;whiteSpace=wrap;html=1;fillColor=#CCE5FF;" parent="1" vertex="1">
          <mxGeometry x="1675" y="527.5" width="225" height="40" as="geometry" />
        </mxCell>
        <mxCell id="oRM2KtZNI3yHn6trO2R9-1" value="&lt;b&gt;&lt;font style=&quot;font-size: 19px;&quot;&gt;ThreadLocal&lt;/font&gt;&lt;/b&gt;" style="text;html=1;strokeColor=none;fillColor=none;align=center;verticalAlign=middle;whiteSpace=wrap;rounded=0;" parent="1" vertex="1">
          <mxGeometry x="1450" y="210" width="180" height="30" as="geometry" />
        </mxCell>
      </root>
    </mxGraphModel>
  </diagram>
  <diagram id="8-Ujl-4890stzTWYYLfs" name="Java内存模型">
    <mxGraphModel dx="1804" dy="658" grid="1" gridSize="10" guides="1" tooltips="1" connect="1" arrows="1" fold="1" page="1" pageScale="1" pageWidth="850" pageHeight="1100" math="0" shadow="0">
      <root>
        <mxCell id="0" />
        <mxCell id="1" parent="0" />
        <mxCell id="SkeuHqlGkgRDMkwGpSjx-1" value="" style="rounded=0;whiteSpace=wrap;html=1;strokeColor=#666666;fillColor=#f5f5f5;fontColor=#333333;strokeWidth=2;" parent="1" vertex="1">
          <mxGeometry x="200" y="240" width="200" height="200" as="geometry" />
        </mxCell>
        <mxCell id="SkeuHqlGkgRDMkwGpSjx-2" value="线程A" style="text;html=1;align=center;verticalAlign=middle;resizable=0;points=[];autosize=1;strokeColor=none;fillColor=none;fontSize=14;fontStyle=1" parent="1" vertex="1">
          <mxGeometry x="270" y="240" width="60" height="30" as="geometry" />
        </mxCell>
        <mxCell id="SkeuHqlGkgRDMkwGpSjx-4" value="" style="rounded=0;whiteSpace=wrap;html=1;strokeColor=#666666;fillColor=#f5f5f5;fontColor=#333333;strokeWidth=2;" parent="1" vertex="1">
          <mxGeometry x="440" y="240" width="200" height="200" as="geometry" />
        </mxCell>
        <mxCell id="SkeuHqlGkgRDMkwGpSjx-3" value="线程B" style="text;html=1;align=center;verticalAlign=middle;resizable=0;points=[];autosize=1;strokeColor=none;fillColor=none;fontSize=14;fontStyle=1" parent="1" vertex="1">
          <mxGeometry x="510" y="240" width="60" height="30" as="geometry" />
        </mxCell>
        <mxCell id="SkeuHqlGkgRDMkwGpSjx-5" value="" style="rounded=1;whiteSpace=wrap;html=1;fillColor=#ffe6cc;strokeColor=#d79b00;" parent="1" vertex="1">
          <mxGeometry x="216.25" y="280" width="167.5" height="140" as="geometry" />
        </mxCell>
        <mxCell id="SkeuHqlGkgRDMkwGpSjx-23" style="edgeStyle=orthogonalEdgeStyle;rounded=0;orthogonalLoop=1;jettySize=auto;html=1;exitX=0;exitY=0.5;exitDx=0;exitDy=0;entryX=0;entryY=0.5;entryDx=0;entryDy=0;strokeWidth=2;endArrow=none;endFill=0;" parent="1" source="SkeuHqlGkgRDMkwGpSjx-8" target="SkeuHqlGkgRDMkwGpSjx-9" edge="1">
          <mxGeometry relative="1" as="geometry">
            <Array as="points">
              <mxPoint x="230" y="305" />
              <mxPoint x="230" y="350" />
            </Array>
          </mxGeometry>
        </mxCell>
        <mxCell id="SkeuHqlGkgRDMkwGpSjx-8" value="控制器" style="rounded=0;whiteSpace=wrap;html=1;fillColor=#dae8fc;strokeColor=#6c8ebf;" parent="1" vertex="1">
          <mxGeometry x="240" y="290" width="120" height="30" as="geometry" />
        </mxCell>
        <mxCell id="SkeuHqlGkgRDMkwGpSjx-9" value="运算器" style="rounded=0;whiteSpace=wrap;html=1;fillColor=#dae8fc;strokeColor=#6c8ebf;" parent="1" vertex="1">
          <mxGeometry x="240" y="335" width="120" height="30" as="geometry" />
        </mxCell>
        <mxCell id="SkeuHqlGkgRDMkwGpSjx-24" style="edgeStyle=orthogonalEdgeStyle;rounded=0;orthogonalLoop=1;jettySize=auto;html=1;exitX=0;exitY=0.344;exitDx=0;exitDy=0;startArrow=blockThin;startFill=1;endArrow=none;endFill=0;strokeWidth=2;exitPerimeter=0;" parent="1" source="SkeuHqlGkgRDMkwGpSjx-10" edge="1">
          <mxGeometry relative="1" as="geometry">
            <mxPoint x="230" y="330" as="targetPoint" />
            <Array as="points">
              <mxPoint x="220" y="390" />
              <mxPoint x="220" y="330" />
            </Array>
          </mxGeometry>
        </mxCell>
        <mxCell id="SkeuHqlGkgRDMkwGpSjx-10" value="&amp;nbsp;L1 Cache" style="rounded=0;whiteSpace=wrap;html=1;fillColor=#f8cecc;strokeColor=#b85450;fontStyle=1" parent="1" vertex="1">
          <mxGeometry x="240" y="380" width="120" height="30" as="geometry" />
        </mxCell>
        <mxCell id="SkeuHqlGkgRDMkwGpSjx-11" value="" style="rounded=1;whiteSpace=wrap;html=1;fillColor=#ffe6cc;strokeColor=#d79b00;" parent="1" vertex="1">
          <mxGeometry x="456.25" y="280" width="167.5" height="140" as="geometry" />
        </mxCell>
        <mxCell id="SkeuHqlGkgRDMkwGpSjx-12" value="控制器" style="rounded=0;whiteSpace=wrap;html=1;fillColor=#dae8fc;strokeColor=#6c8ebf;" parent="1" vertex="1">
          <mxGeometry x="480" y="290" width="120" height="30" as="geometry" />
        </mxCell>
        <mxCell id="SkeuHqlGkgRDMkwGpSjx-13" value="运算器" style="rounded=0;whiteSpace=wrap;html=1;fillColor=#dae8fc;strokeColor=#6c8ebf;" parent="1" vertex="1">
          <mxGeometry x="480" y="335" width="120" height="30" as="geometry" />
        </mxCell>
        <mxCell id="SkeuHqlGkgRDMkwGpSjx-14" value="&amp;nbsp;L1 Cache" style="rounded=0;whiteSpace=wrap;html=1;fillColor=#f8cecc;strokeColor=#b85450;fontStyle=1" parent="1" vertex="1">
          <mxGeometry x="480" y="380" width="120" height="30" as="geometry" />
        </mxCell>
        <mxCell id="SkeuHqlGkgRDMkwGpSjx-15" value="&amp;nbsp;L2 Cache" style="rounded=0;whiteSpace=wrap;html=1;fillColor=#f8cecc;strokeColor=#b85450;strokeWidth=2;fontStyle=1" parent="1" vertex="1">
          <mxGeometry x="200" y="460" width="440" height="40" as="geometry" />
        </mxCell>
        <mxCell id="SkeuHqlGkgRDMkwGpSjx-16" value="" style="rounded=0;whiteSpace=wrap;html=1;fillColor=#e1d5e7;strokeColor=#9673a6;strokeWidth=2;" parent="1" vertex="1">
          <mxGeometry x="200" y="520" width="440" height="100" as="geometry" />
        </mxCell>
        <mxCell id="SkeuHqlGkgRDMkwGpSjx-17" value="主内存" style="text;html=1;align=center;verticalAlign=middle;resizable=0;points=[];autosize=1;strokeColor=none;fillColor=none;fontSize=14;fontStyle=1" parent="1" vertex="1">
          <mxGeometry x="383.75" y="550" width="70" height="30" as="geometry" />
        </mxCell>
        <mxCell id="SkeuHqlGkgRDMkwGpSjx-18" value="共享变量1" style="ellipse;whiteSpace=wrap;html=1;strokeWidth=2;fillColor=#d5e8d4;strokeColor=#82b366;" parent="1" vertex="1">
          <mxGeometry x="220" y="535" width="110" height="70" as="geometry" />
        </mxCell>
        <mxCell id="SkeuHqlGkgRDMkwGpSjx-19" value="共享变量2" style="ellipse;whiteSpace=wrap;html=1;strokeWidth=2;fillColor=#d5e8d4;strokeColor=#82b366;" parent="1" vertex="1">
          <mxGeometry x="490" y="535" width="110" height="70" as="geometry" />
        </mxCell>
        <mxCell id="SkeuHqlGkgRDMkwGpSjx-20" value="Java内存模型" style="text;html=1;align=center;verticalAlign=middle;resizable=0;points=[];autosize=1;strokeColor=none;fillColor=none;fontSize=15;" parent="1" vertex="1">
          <mxGeometry x="360" y="620" width="120" height="30" as="geometry" />
        </mxCell>
        <mxCell id="SkeuHqlGkgRDMkwGpSjx-25" style="edgeStyle=orthogonalEdgeStyle;rounded=0;orthogonalLoop=1;jettySize=auto;html=1;exitX=0;exitY=0.75;exitDx=0;exitDy=0;entryX=0.243;entryY=0.033;entryDx=0;entryDy=0;entryPerimeter=0;endArrow=blockThin;endFill=1;strokeWidth=2;" parent="1" source="SkeuHqlGkgRDMkwGpSjx-10" target="SkeuHqlGkgRDMkwGpSjx-15" edge="1">
          <mxGeometry relative="1" as="geometry">
            <Array as="points">
              <mxPoint x="220" y="402" />
              <mxPoint x="220" y="430" />
              <mxPoint x="307" y="430" />
            </Array>
          </mxGeometry>
        </mxCell>
        <mxCell id="SkeuHqlGkgRDMkwGpSjx-27" style="edgeStyle=orthogonalEdgeStyle;rounded=0;orthogonalLoop=1;jettySize=auto;html=1;exitX=0.25;exitY=1;exitDx=0;exitDy=0;entryX=0.5;entryY=0;entryDx=0;entryDy=0;strokeColor=default;strokeWidth=2;align=center;verticalAlign=middle;fontFamily=Helvetica;fontSize=11;fontColor=default;labelBackgroundColor=default;endArrow=blockThin;endFill=1;" parent="1" source="SkeuHqlGkgRDMkwGpSjx-15" target="SkeuHqlGkgRDMkwGpSjx-18" edge="1">
          <mxGeometry relative="1" as="geometry">
            <Array as="points">
              <mxPoint x="310" y="510" />
              <mxPoint x="275" y="510" />
            </Array>
          </mxGeometry>
        </mxCell>
        <mxCell id="SkeuHqlGkgRDMkwGpSjx-29" value="1. 线程A需要读写 共享变量1" style="text;html=1;align=center;verticalAlign=middle;resizable=0;points=[];autosize=1;strokeColor=none;fillColor=none;fontFamily=Helvetica;fontSize=13;fontColor=default;labelBackgroundColor=default;fontStyle=1" parent="1" vertex="1">
          <mxGeometry x="-5" y="290" width="190" height="30" as="geometry" />
        </mxCell>
        <mxCell id="SkeuHqlGkgRDMkwGpSjx-30" value="2. 线程A访问 L1 Cache&amp;nbsp; &amp;nbsp;" style="text;html=1;align=center;verticalAlign=middle;resizable=0;points=[];autosize=1;strokeColor=none;fillColor=none;fontFamily=Helvetica;fontSize=13;fontColor=default;labelBackgroundColor=default;fontStyle=1" parent="1" vertex="1">
          <mxGeometry x="-5" y="380" width="170" height="30" as="geometry" />
        </mxCell>
        <mxCell id="SkeuHqlGkgRDMkwGpSjx-31" value="&lt;span style=&quot;font-size: 13px;&quot;&gt;如果存在，则直接操作&lt;/span&gt;&lt;div style=&quot;font-size: 13px;&quot;&gt;&amp;nbsp; 并在完成后将变量值一路修改到主内存&lt;/div&gt;" style="text;html=1;align=left;verticalAlign=middle;resizable=0;points=[];autosize=1;strokeColor=none;fillColor=none;fontFamily=Helvetica;fontSize=11;fontColor=default;labelBackgroundColor=default;" parent="1" vertex="1">
          <mxGeometry x="-35" y="410" width="250" height="40" as="geometry" />
        </mxCell>
        <mxCell id="SkeuHqlGkgRDMkwGpSjx-32" value="&lt;span style=&quot;font-size: 13px;&quot;&gt;如果不存在，则继续访问 L2 Cache&lt;/span&gt;" style="text;html=1;align=left;verticalAlign=middle;resizable=0;points=[];autosize=1;strokeColor=none;fillColor=none;fontFamily=Helvetica;fontSize=11;fontColor=default;labelBackgroundColor=default;" parent="1" vertex="1">
          <mxGeometry x="-35" y="440" width="230" height="30" as="geometry" />
        </mxCell>
        <mxCell id="SkeuHqlGkgRDMkwGpSjx-33" value="3. 线程A访问 L2 Cache&amp;nbsp; &amp;nbsp;" style="text;html=1;align=center;verticalAlign=middle;resizable=0;points=[];autosize=1;strokeColor=none;fillColor=none;fontFamily=Helvetica;fontSize=13;fontColor=default;labelBackgroundColor=default;fontStyle=1" parent="1" vertex="1">
          <mxGeometry x="-5" y="470" width="170" height="30" as="geometry" />
        </mxCell>
        <mxCell id="SkeuHqlGkgRDMkwGpSjx-34" value="4. 线程A访问 主内存 ，&lt;div&gt;&amp;nbsp; &amp;nbsp; 读取共享变量1到工作内存&lt;/div&gt;&lt;div&gt;&amp;nbsp; &amp;nbsp; 读写完成后，一路修改到主内存&lt;/div&gt;" style="text;html=1;align=left;verticalAlign=middle;resizable=0;points=[];autosize=1;strokeColor=none;fillColor=none;fontFamily=Helvetica;fontSize=13;fontColor=default;labelBackgroundColor=default;fontStyle=1" parent="1" vertex="1">
          <mxGeometry y="540" width="220" height="60" as="geometry" />
        </mxCell>
        <mxCell id="SkeuHqlGkgRDMkwGpSjx-35" value="CPU" style="text;html=1;align=center;verticalAlign=middle;resizable=0;points=[];autosize=1;strokeColor=none;fillColor=none;fontFamily=Helvetica;fontSize=14;fontColor=default;labelBackgroundColor=none;" parent="1" vertex="1">
          <mxGeometry x="350" y="240" width="50" height="30" as="geometry" />
        </mxCell>
        <mxCell id="SkeuHqlGkgRDMkwGpSjx-36" value="CPU" style="text;html=1;align=center;verticalAlign=middle;resizable=0;points=[];autosize=1;strokeColor=none;fillColor=none;fontFamily=Helvetica;fontSize=14;fontColor=default;labelBackgroundColor=none;" parent="1" vertex="1">
          <mxGeometry x="590" y="240" width="50" height="30" as="geometry" />
        </mxCell>
      </root>
    </mxGraphModel>
  </diagram>
  <diagram id="mgbRlbXWoqebPKdkeJ3m" name="伪共享的内存模型">
    <mxGraphModel dx="954" dy="658" grid="1" gridSize="10" guides="1" tooltips="1" connect="1" arrows="1" fold="1" page="1" pageScale="1" pageWidth="850" pageHeight="1100" math="0" shadow="0">
      <root>
        <mxCell id="0" />
        <mxCell id="1" parent="0" />
        <mxCell id="mhcbddUDHg2jxvbqXA-R-33" value="" style="rounded=1;whiteSpace=wrap;html=1;fontFamily=Helvetica;fontSize=11;fontColor=#333333;labelBackgroundColor=default;arcSize=2;fillColor=#F5F5F5;strokeColor=#666666;strokeWidth=2;" parent="1" vertex="1">
          <mxGeometry x="181.88" y="220" width="478.12" height="350" as="geometry" />
        </mxCell>
        <mxCell id="mhcbddUDHg2jxvbqXA-R-1" value="" style="rounded=0;whiteSpace=wrap;html=1;strokeColor=#666666;fillColor=#E0E0E0;strokeWidth=2;fontColor=#333333;" parent="1" vertex="1">
          <mxGeometry x="440" y="240" width="200" height="200" as="geometry" />
        </mxCell>
        <mxCell id="mhcbddUDHg2jxvbqXA-R-3" value="" style="rounded=1;whiteSpace=wrap;html=1;fillColor=#f8cecc;strokeColor=#b85450;arcSize=11;" parent="1" vertex="1">
          <mxGeometry x="456.25" y="280" width="167.5" height="140" as="geometry" />
        </mxCell>
        <mxCell id="mhcbddUDHg2jxvbqXA-R-7" value="CPU 2" style="text;html=1;align=center;verticalAlign=middle;resizable=0;points=[];autosize=1;strokeColor=none;fillColor=none;fontFamily=Helvetica;fontSize=14;fontColor=default;labelBackgroundColor=none;fontStyle=1" parent="1" vertex="1">
          <mxGeometry x="510" y="250" width="60" height="30" as="geometry" />
        </mxCell>
        <mxCell id="mhcbddUDHg2jxvbqXA-R-9" value="Cache 1" style="text;html=1;align=center;verticalAlign=middle;resizable=0;points=[];autosize=1;strokeColor=none;fillColor=none;fontStyle=1;fontSize=14;" parent="1" vertex="1">
          <mxGeometry x="500" y="280" width="80" height="30" as="geometry" />
        </mxCell>
        <mxCell id="mhcbddUDHg2jxvbqXA-R-10" value="" style="rounded=1;whiteSpace=wrap;html=1;arcSize=50;fillColor=#ffe6cc;strokeColor=#d79b00;" parent="1" vertex="1">
          <mxGeometry x="470" y="320" width="140" height="20" as="geometry" />
        </mxCell>
        <mxCell id="mhcbddUDHg2jxvbqXA-R-11" value="" style="rounded=1;whiteSpace=wrap;html=1;arcSize=50;fillColor=#ffe6cc;strokeColor=#d79b00;" parent="1" vertex="1">
          <mxGeometry x="470" y="350" width="140" height="20" as="geometry" />
        </mxCell>
        <mxCell id="mhcbddUDHg2jxvbqXA-R-12" value="&lt;b style=&quot;font-size: 14px;&quot;&gt;x&lt;/b&gt;, y" style="rounded=1;whiteSpace=wrap;html=1;arcSize=50;fillColor=#ffe6cc;strokeColor=#d79b00;fontSize=14;" parent="1" vertex="1">
          <mxGeometry x="470" y="380" width="140" height="20" as="geometry" />
        </mxCell>
        <mxCell id="mhcbddUDHg2jxvbqXA-R-14" value="" style="rounded=0;whiteSpace=wrap;html=1;strokeColor=#666666;fillColor=#E0E0E0;strokeWidth=2;fontColor=#333333;" parent="1" vertex="1">
          <mxGeometry x="200" y="240" width="200" height="200" as="geometry" />
        </mxCell>
        <mxCell id="mhcbddUDHg2jxvbqXA-R-16" value="" style="rounded=1;whiteSpace=wrap;html=1;fillColor=#f8cecc;strokeColor=#b85450;arcSize=11;" parent="1" vertex="1">
          <mxGeometry x="216.25" y="280" width="167.5" height="140" as="geometry" />
        </mxCell>
        <mxCell id="mhcbddUDHg2jxvbqXA-R-17" value="CPU 1" style="text;html=1;align=center;verticalAlign=middle;resizable=0;points=[];autosize=1;strokeColor=none;fillColor=none;fontFamily=Helvetica;fontSize=14;fontColor=default;labelBackgroundColor=none;fontStyle=1" parent="1" vertex="1">
          <mxGeometry x="270" y="250" width="60" height="30" as="geometry" />
        </mxCell>
        <mxCell id="mhcbddUDHg2jxvbqXA-R-18" value="Cache 1" style="text;html=1;align=center;verticalAlign=middle;resizable=0;points=[];autosize=1;strokeColor=none;fillColor=none;fontStyle=1;fontSize=14;" parent="1" vertex="1">
          <mxGeometry x="260" y="280" width="80" height="30" as="geometry" />
        </mxCell>
        <mxCell id="mhcbddUDHg2jxvbqXA-R-19" value="" style="rounded=1;whiteSpace=wrap;html=1;arcSize=50;fillColor=#ffe6cc;strokeColor=#d79b00;" parent="1" vertex="1">
          <mxGeometry x="230" y="320" width="140" height="20" as="geometry" />
        </mxCell>
        <mxCell id="mhcbddUDHg2jxvbqXA-R-20" value="" style="rounded=1;whiteSpace=wrap;html=1;arcSize=50;fillColor=#ffe6cc;strokeColor=#d79b00;" parent="1" vertex="1">
          <mxGeometry x="230" y="350" width="140" height="20" as="geometry" />
        </mxCell>
        <mxCell id="mhcbddUDHg2jxvbqXA-R-21" value="x, &lt;b style=&quot;font-size: 14px;&quot;&gt;y&lt;/b&gt;" style="rounded=1;whiteSpace=wrap;html=1;arcSize=50;fillColor=#ffe6cc;strokeColor=#d79b00;fontSize=14;" parent="1" vertex="1">
          <mxGeometry x="230" y="380" width="140" height="20" as="geometry" />
        </mxCell>
        <mxCell id="mhcbddUDHg2jxvbqXA-R-22" value="" style="rounded=1;whiteSpace=wrap;html=1;fillColor=#F8C1BF;strokeColor=#b85450;strokeWidth=2;" parent="1" vertex="1">
          <mxGeometry x="200" y="460" width="440" height="90" as="geometry" />
        </mxCell>
        <mxCell id="mhcbddUDHg2jxvbqXA-R-23" value="Cache 2" style="text;html=1;align=center;verticalAlign=middle;resizable=0;points=[];autosize=1;strokeColor=none;fillColor=none;fontStyle=1;fontSize=14;" parent="1" vertex="1">
          <mxGeometry x="385" y="460" width="80" height="30" as="geometry" />
        </mxCell>
        <mxCell id="mhcbddUDHg2jxvbqXA-R-24" value="" style="rounded=1;whiteSpace=wrap;html=1;arcSize=50;fillColor=#ffe6cc;strokeColor=#d79b00;" parent="1" vertex="1">
          <mxGeometry x="216.25" y="520" width="403.75" height="20" as="geometry" />
        </mxCell>
        <mxCell id="mhcbddUDHg2jxvbqXA-R-27" value="x, y" style="rounded=1;whiteSpace=wrap;html=1;arcSize=50;fillColor=#ffe6cc;strokeColor=#d79b00;fontSize=14;" parent="1" vertex="1">
          <mxGeometry x="213.75" y="490" width="406.25" height="20" as="geometry" />
        </mxCell>
        <mxCell id="mhcbddUDHg2jxvbqXA-R-28" value="" style="rounded=1;whiteSpace=wrap;html=1;fillColor=#e1d5e7;strokeColor=#9673a6;strokeWidth=2;arcSize=10;" parent="1" vertex="1">
          <mxGeometry x="180" y="600" width="480" height="90" as="geometry" />
        </mxCell>
        <mxCell id="mhcbddUDHg2jxvbqXA-R-29" value="&lt;b style=&quot;font-size: 14px;&quot;&gt;主内存&lt;/b&gt;" style="text;html=1;align=center;verticalAlign=middle;resizable=0;points=[];autosize=1;strokeColor=none;fillColor=none;fontSize=14;" parent="1" vertex="1">
          <mxGeometry x="390" y="600" width="70" height="30" as="geometry" />
        </mxCell>
        <mxCell id="mhcbddUDHg2jxvbqXA-R-30" value="x" style="rounded=1;whiteSpace=wrap;html=1;arcSize=30;fillColor=#dae8fc;strokeColor=#6c8ebf;" parent="1" vertex="1">
          <mxGeometry x="340" y="630" width="70" height="35" as="geometry" />
        </mxCell>
        <mxCell id="mhcbddUDHg2jxvbqXA-R-31" value="y" style="rounded=1;whiteSpace=wrap;html=1;arcSize=36;fillColor=#dae8fc;strokeColor=#6c8ebf;" parent="1" vertex="1">
          <mxGeometry x="440" y="630" width="70" height="35" as="geometry" />
        </mxCell>
        <mxCell id="mhcbddUDHg2jxvbqXA-R-32" style="edgeStyle=orthogonalEdgeStyle;rounded=0;orthogonalLoop=1;jettySize=auto;html=1;entryX=0.429;entryY=-0.021;entryDx=0;entryDy=0;entryPerimeter=0;strokeWidth=2;endArrow=blockThin;endFill=1;startArrow=blockThin;startFill=1;" parent="1" target="mhcbddUDHg2jxvbqXA-R-29" edge="1">
          <mxGeometry relative="1" as="geometry">
            <mxPoint x="420" y="570" as="sourcePoint" />
          </mxGeometry>
        </mxCell>
        <mxCell id="mhcbddUDHg2jxvbqXA-R-35" style="edgeStyle=orthogonalEdgeStyle;rounded=0;orthogonalLoop=1;jettySize=auto;html=1;exitX=0.5;exitY=1;exitDx=0;exitDy=0;entryX=0.5;entryY=0;entryDx=0;entryDy=0;strokeColor=default;strokeWidth=2;align=center;verticalAlign=middle;fontFamily=Helvetica;fontSize=11;fontColor=default;labelBackgroundColor=default;startArrow=none;startFill=0;endArrow=blockThin;endFill=1;" parent="1" source="mhcbddUDHg2jxvbqXA-R-34" target="mhcbddUDHg2jxvbqXA-R-14" edge="1">
          <mxGeometry relative="1" as="geometry" />
        </mxCell>
        <mxCell id="mhcbddUDHg2jxvbqXA-R-34" value="Thread 1" style="rounded=1;whiteSpace=wrap;html=1;arcSize=30;fillColor=#d5e8d4;strokeColor=#82b366;strokeWidth=2;fontSize=14;fontStyle=1" parent="1" vertex="1">
          <mxGeometry x="215" y="160" width="170" height="40" as="geometry" />
        </mxCell>
        <mxCell id="mhcbddUDHg2jxvbqXA-R-36" style="edgeStyle=orthogonalEdgeStyle;rounded=0;orthogonalLoop=1;jettySize=auto;html=1;exitX=0.5;exitY=1;exitDx=0;exitDy=0;entryX=0.5;entryY=0;entryDx=0;entryDy=0;strokeColor=default;strokeWidth=2;align=center;verticalAlign=middle;fontFamily=Helvetica;fontSize=11;fontColor=default;labelBackgroundColor=default;startArrow=none;startFill=0;endArrow=blockThin;endFill=1;" parent="1" source="mhcbddUDHg2jxvbqXA-R-37" edge="1">
          <mxGeometry relative="1" as="geometry">
            <mxPoint x="540" y="240" as="targetPoint" />
          </mxGeometry>
        </mxCell>
        <mxCell id="mhcbddUDHg2jxvbqXA-R-37" value="Thread 2" style="rounded=1;whiteSpace=wrap;html=1;arcSize=30;fillColor=#d5e8d4;strokeColor=#82b366;strokeWidth=2;fontSize=14;fontStyle=1" parent="1" vertex="1">
          <mxGeometry x="455" y="160" width="170" height="40" as="geometry" />
        </mxCell>
        <mxCell id="lP0B-dFT6LGavXFQpABR-1" value="&lt;b&gt;&lt;font style=&quot;font-size: 14px;&quot;&gt;Cache行&lt;/font&gt;&lt;/b&gt;" style="text;html=1;align=center;verticalAlign=middle;resizable=0;points=[];autosize=1;strokeColor=none;fillColor=none;" vertex="1" parent="1">
          <mxGeometry x="420" y="570" width="80" height="30" as="geometry" />
        </mxCell>
      </root>
    </mxGraphModel>
  </diagram>
</mxfile>
